<?xml version="1.0" encoding="UTF-8"?>
<!DOCTYPE svg PUBLIC "-//W3C//DTD SVG 1.1//EN" "http://www.w3.org/Graphics/SVG/1.1/DTD/svg11.dtd">
<svg xmlns="http://www.w3.org/2000/svg" xmlns:xlink="http://www.w3.org/1999/xlink" version="1.1" width="396px" height="134px" viewBox="-0.5 -0.5 396 134"><defs><clipPath id="mx-clip-131-31-132-26-0"><rect x="131" y="31" width="132" height="26"/></clipPath><clipPath id="mx-clip-131-57-132-26-0"><rect x="131" y="57" width="132" height="26"/></clipPath><clipPath id="mx-clip-131-83-132-26-0"><rect x="131" y="83" width="132" height="26"/></clipPath><clipPath id="mx-clip-131-109-132-26-0"><rect x="131" y="109" width="132" height="26"/></clipPath></defs><g><path d="M 127 26 L 127 0 L 267 0 L 267 26" fill="none" stroke="rgb(0, 0, 0)" stroke-miterlimit="10" pointer-events="all"/><path d="M 127 26 L 127 130 L 267 130 L 267 26" fill="none" stroke="rgb(0, 0, 0)" stroke-miterlimit="10" pointer-events="none"/><path d="M 127 26 L 267 26" fill="none" stroke="rgb(0, 0, 0)" stroke-miterlimit="10" pointer-events="none"/><g fill="rgb(0, 0, 0)" font-family="Helvetica" pointer-events="none" text-anchor="middle" font-size="12px"><text x="196.5" y="17.5">Node</text></g><rect x="127" y="26" width="140" height="26" fill="#67f2fc" stroke="#6c8ebf" pointer-events="none"/><g fill="rgb(0, 0, 0)" font-family="Helvetica" pointer-events="none" clip-path="url(#mx-clip-131-31-132-26-0)" font-size="12px"><text x="132.5" y="43.5">+ Input1</text></g><rect x="127" y="52" width="140" height="26" fill="#67f2fc" stroke="#6c8ebf" pointer-events="none"/><g fill="rgb(0, 0, 0)" font-family="Helvetica" pointer-events="none" clip-path="url(#mx-clip-131-57-132-26-0)" font-size="12px"><text x="132.5" y="69.5">+ InputN</text></g><rect x="127" y="78" width="140" height="26" fill="#d5e8d4" stroke="#82b366" pointer-events="none"/><g fill="rgb(0, 0, 0)" font-family="Helvetica" pointer-events="none" clip-path="url(#mx-clip-131-83-132-26-0)" font-size="12px"><text x="132.5" y="95.5">+ Output1</text></g><rect x="127" y="104" width="140" height="26" fill="#d5e8d4" stroke="#82b366" pointer-events="none"/><g fill="rgb(0, 0, 0)" font-family="Helvetica" pointer-events="none" clip-path="url(#mx-clip-131-109-132-26-0)" font-size="12px"><text x="132.5" y="121.5">+ OutputN</text></g><path d="M 267 91 L 380.63 90.05" fill="none" stroke="#c3b1b1" stroke-miterlimit="10" pointer-events="none"/><path d="M 385.88 90.01 L 378.91 93.57 L 380.63 90.05 L 378.85 86.57 Z" fill="#c3b1b1" stroke="#c3b1b1" stroke-miterlimit="10" pointer-events="none"/><path d="M 7 70.63 L 120.63 70.03" fill="none" stroke="#c3b1b1" stroke-miterlimit="10" pointer-events="none"/><path d="M 125.88 70.01 L 118.9 73.54 L 120.63 70.03 L 118.86 66.54 Z" fill="#c3b1b1" stroke="#c3b1b1" stroke-miterlimit="10" pointer-events="none"/><path d="M 7 40.63 L 120.63 40.03" fill="none" stroke="#c3b1b1" stroke-miterlimit="10" pointer-events="none"/><path d="M 125.88 40.01 L 118.9 43.54 L 120.63 40.03 L 118.86 36.54 Z" fill="#c3b1b1" stroke="#c3b1b1" stroke-miterlimit="10" pointer-events="none"/><path d="M 267 116.26 L 378.63 115.07" fill="none" stroke="#c3b1b1" stroke-miterlimit="10" pointer-events="none"/><path d="M 383.88 115.01 L 376.92 118.59 L 378.63 115.07 L 376.85 111.59 Z" fill="#c3b1b1" stroke="#c3b1b1" stroke-miterlimit="10" pointer-events="none"/></g></svg>