<svg width="550" height="550" viewBox="0 0 550 550" fill="none" xmlns="http://www.w3.org/2000/svg">
<circle cx="275" cy="275" r="275" fill="#49993D"/>
<path d="M176.619 477.368C178.047 476.716 179.1 475.724 179.709 474.7C181.486 471.713 180.297 467.886 177.481 466.21C176.628 465.702 175.622 465.45 174.515 465.369L194.321 432.086C196.403 428.587 195.982 425.217 192.398 423.084C188.643 420.849 185.48 422.087 183.397 425.586L154.704 473.803C152.52 477.472 153.76 481.215 156.747 482.992C158.71 484.16 160.687 484.528 163.679 483.189L176.619 477.368Z" fill="white"/>
<path d="M138.481 396.553C141.303 400.146 145.904 400.699 149.731 397.694C153.324 394.873 153.955 390.21 151.134 386.617C148.496 383.259 143.694 382.611 140.102 385.432C136.275 388.437 135.844 393.195 138.481 396.553Z" fill="white"/>
<path d="M114.343 346.711C115.875 347.57 117.776 347.831 119.418 347.438C122.895 346.607 125.652 343.191 124.498 338.362L118.081 311.511C117.111 307.454 114.524 306.03 110.468 307C106.218 308.015 104.748 310.409 105.717 314.465L109.411 329.919L93.9981 322.678C83.4269 317.751 77.8084 316.03 68.4394 318.269C57.0421 320.993 50.1728 330.701 53.0814 342.871C55.9207 354.751 67.6382 360.63 75.4617 358.76C79.5184 357.791 80.8542 354.408 80.0925 351.221C79.4692 348.613 77.2775 346.278 73.8088 346.29C70.0504 346.371 66.5338 344.047 65.6104 340.183C64.4101 335.161 66.8545 331.717 71.3941 330.632C75.8372 329.571 80.282 330.653 88.1196 334.395L114.343 346.711Z" fill="white"/>
<path d="M104.611 255.819C103.718 260.299 106.293 264.153 111.065 265.103C115.545 265.995 119.497 263.441 120.389 258.96C121.223 254.772 118.59 250.704 114.11 249.812C109.337 248.862 105.444 251.631 104.611 255.819Z" fill="white"/>
<path d="M87.7996 175.19C88.3695 176.595 89.356 177.936 90.7165 178.935C93.7575 181.17 97.8163 179.839 99.5803 177.438C100.756 175.837 101.586 173.366 99.9872 170.343C98.7722 167.971 98.8278 165.548 100.592 163.147C102.885 160.026 106.81 159.212 109.451 161.153C112.892 163.681 114.708 168.589 111.752 172.948C109.56 176.267 109.269 179.011 112.31 181.246C115.431 183.539 118.123 182.559 120.555 179.417C124.713 174.092 131.74 173.586 136.461 177.055C140.383 179.937 141.076 185.869 137.725 190.43C135.196 193.872 131.394 195.021 127.695 194.521C124.652 194.134 122.584 195.942 121.643 197.223C119.585 200.023 120.121 203.991 123.082 206.166C124.362 207.107 126.215 207.605 128.499 207.682C135.456 208.11 142.735 205.079 147.968 197.957C155.26 188.033 153.89 173.964 144.287 166.908C137.404 161.851 127.575 162.147 122.943 165.767C124.118 159.976 120.338 153.379 116.017 150.204C107.614 144.03 96.8539 146.598 90.2682 155.561C85.9757 161.404 85.0559 168.861 87.7996 175.19Z" fill="white"/>
<path d="M191.247 137.514C187.238 139.704 185.933 144.151 188.266 148.421C190.456 152.43 194.951 153.822 198.959 151.632C202.707 149.585 204.138 144.955 201.948 140.946C199.615 136.676 194.994 135.466 191.247 137.514Z" fill="white"/>
<path d="M250.029 70.0464C249.754 65.8845 247.741 64.0268 243.381 64.3144C239.318 64.5824 237.17 66.7146 237.444 70.8765L239.882 107.838C240.196 112.594 242.725 114.717 247.283 114.416L264.921 113.252L265.823 126.927C266.046 130.296 268.488 132.623 272.65 132.349C276.812 132.074 278.729 129.46 278.507 126.091L277.605 112.416L277.803 112.403C281.767 112.141 283.915 110.009 283.628 105.649C283.353 101.487 280.93 99.4574 276.967 99.7189L276.768 99.732L274.703 68.4188C274.428 64.2569 272.217 62.4123 268.055 62.6868C263.893 62.9614 261.745 65.0936 262.019 69.2554L264.085 100.569L252.094 101.36L250.029 70.0464Z" fill="white"/>
<path d="M336.61 127.693C332.348 126.049 328.111 127.927 326.359 132.466C324.715 136.728 326.557 141.058 330.819 142.703C334.802 144.24 339.261 142.341 340.905 138.079C342.657 133.539 340.594 129.231 336.61 127.693Z" fill="white"/>
<path d="M430.513 125.312C427.427 122.08 424.06 121.862 420.414 124.658L401.473 138.903C400.758 139.448 400.115 139.925 399.54 140.474C396.955 142.943 395.451 147.264 399.154 151.142C400.732 152.793 401.986 153.244 404.859 153.52C407.243 153.716 410.303 155.05 412.155 156.989C416.064 161.083 415.841 167.751 411.173 172.209C407.079 176.118 400.049 176.378 396.14 172.285C393.19 169.197 392.435 165.386 394.005 161.278C395.127 158.284 394.764 155.747 392.912 153.808C390.443 151.222 386.655 150.995 383.854 153.67C383.208 154.287 382.555 155.185 382.108 156.299C378.773 163.878 380.157 173.954 386.947 181.064C395.658 190.185 410.76 190.181 419.952 181.401C430.294 171.525 430.884 158.052 423.065 149.865C420.39 147.064 417.131 145.233 413.556 144.94L424.201 137.108L436.547 150.035C439.497 153.123 442.857 153.621 445.945 150.672C448.889 147.86 448.689 144.343 445.74 141.255L430.513 125.312Z" fill="white"/>
<path d="M438.704 234.253C437.257 229.92 433.111 227.849 428.495 229.391C424.162 230.838 421.998 235.016 423.444 239.349C424.797 243.399 429.101 245.626 433.433 244.179C438.049 242.638 440.057 238.303 438.704 234.253Z" fill="white"/>
<path d="M489.696 319.964C490.537 320.463 491.39 320.864 492.672 321.016C496.518 321.471 499.259 318.596 499.644 315.341C499.947 312.777 499.096 310.676 496.289 309.044L464.017 290.224C461.21 288.591 458.42 287.661 455.067 287.264C442.444 285.77 431.072 294.824 429.577 307.447C428.072 320.169 437.015 331.628 449.638 333.122C461.276 334.5 472.001 328.369 473.391 316.634C473.671 314.267 473.434 312.039 472.67 310.048L489.696 319.964ZM462.812 311.381C462.123 317.2 456.853 321.176 451.133 320.499C445.511 319.833 441.512 314.76 442.201 308.941C442.878 303.221 447.94 299.321 453.561 299.986C459.281 300.663 463.489 305.661 462.812 311.381Z" fill="white"/>
<path d="M421.589 380.831C424.007 376.956 422.962 372.44 418.834 369.864C414.959 367.446 410.359 368.438 407.941 372.313C405.68 375.936 406.704 380.672 410.579 383.091C414.707 385.667 419.328 384.454 421.589 380.831Z" fill="white"/>
<path d="M412.626 469.013C416.337 466.524 416.602 462.64 414.777 459.918C413.062 457.361 409.258 455.967 405.546 458.456L388.555 469.849L379.467 419.029C379.243 417.625 378.772 416.745 378.274 416.003C376.173 412.868 372.536 412.437 369.649 414.373C367.175 416.032 366.381 417.88 366.941 421.211L377.011 478.667C377.263 480.291 377.928 481.639 378.647 482.711C380.859 486.01 384.5 487.873 389.201 484.721L412.626 469.013Z" fill="white"/>
</svg>
