<svg width="1344" height="801" viewBox="0 0 1344 801" fill="none" xmlns="http://www.w3.org/2000/svg">
<path d="M340.498 746V636.459L297.716 718.027H279.616L236.834 636.459V746H204.395V579.103H239.185L288.549 674.07L338.383 579.103H372.937V746H340.498Z" fill="#018FA8"/>
<path d="M425.177 579.103L466.549 640.69L507.685 579.103H542.945L485.119 663.727L541.065 746H505.805L466.549 686.763L427.058 746H391.563L447.509 663.727L389.682 579.103H425.177Z" fill="#D64274"/>
<path d="M616.22 746V579.103H648.659V717.557H733.753V746H616.22ZM806.642 748.351C796.769 748.351 787.837 746.705 779.844 743.414C771.852 739.967 765.035 735.344 759.394 729.545C753.752 723.59 749.364 716.852 746.23 709.33C743.252 701.651 741.764 693.58 741.764 685.118C741.764 673.365 744.349 662.63 749.521 652.914C754.849 643.198 762.371 635.44 772.087 629.642C781.96 623.687 793.557 620.71 806.877 620.71C820.354 620.71 831.872 623.687 841.432 629.642C850.991 635.44 858.278 643.198 863.293 652.914C868.464 662.473 871.05 672.816 871.05 683.943C871.05 685.823 870.972 687.782 870.815 689.819C870.658 691.7 870.502 693.267 870.345 694.52H775.143C775.77 700.789 777.572 706.274 780.55 710.975C783.684 715.676 787.602 719.281 792.303 721.788C797.161 724.139 802.332 725.314 807.817 725.314C814.086 725.314 819.962 723.825 825.447 720.848C831.089 717.714 834.928 713.639 836.966 708.624L863.998 716.147C861.021 722.415 856.711 727.978 851.07 732.836C845.585 737.694 839.081 741.534 831.559 744.355C824.037 747.019 815.731 748.351 806.642 748.351ZM774.438 674.54H838.846C838.219 668.271 836.417 662.865 833.44 658.32C830.619 653.619 826.858 650.015 822.156 647.507C817.455 644.843 812.205 643.511 806.407 643.511C800.765 643.511 795.594 644.843 790.893 647.507C786.348 650.015 782.587 653.619 779.609 658.32C776.789 662.865 775.065 668.271 774.438 674.54ZM881.777 709.565C881.777 701.572 883.971 694.599 888.359 688.644C892.903 682.532 899.172 677.831 907.164 674.54C915.156 671.249 924.324 669.603 934.667 669.603C939.838 669.603 945.088 669.995 950.416 670.779C955.744 671.562 960.367 672.816 964.285 674.54V667.958C964.285 660.122 961.935 654.089 957.233 649.858C952.689 645.627 945.872 643.511 936.782 643.511C930.044 643.511 923.619 644.686 917.507 647.037C911.395 649.388 904.97 652.835 898.232 657.38L888.124 636.694C896.273 631.366 904.578 627.37 913.041 624.706C921.66 622.042 930.671 620.71 940.073 620.71C957.625 620.71 971.259 625.098 980.975 633.873C990.848 642.649 995.784 655.186 995.784 671.484V710.74C995.784 714.031 996.333 716.382 997.43 717.792C998.683 719.202 1000.64 720.064 1003.31 720.378V746C1000.49 746.47 997.9 746.862 995.549 747.175C993.355 747.489 991.475 747.645 989.907 747.645C983.639 747.645 978.859 746.235 975.568 743.414C972.434 740.593 970.475 737.146 969.692 733.071L968.987 726.725C963.658 733.62 956.998 738.948 949.006 742.709C941.014 746.47 932.865 748.351 924.559 748.351C916.41 748.351 909.045 746.705 902.463 743.414C896.038 739.967 890.945 735.344 887.183 729.545C883.579 723.59 881.777 716.93 881.777 709.565ZM958.409 715.912C960.132 714.031 961.543 712.15 962.64 710.27C963.737 708.389 964.285 706.666 964.285 705.098V692.64C960.524 691.073 956.45 689.898 952.062 689.114C947.674 688.174 943.521 687.704 939.603 687.704C931.454 687.704 924.716 689.506 919.388 693.11C914.216 696.558 911.63 701.181 911.63 706.979C911.63 710.113 912.492 713.091 914.216 715.912C915.94 718.732 918.447 721.005 921.738 722.728C925.029 724.452 928.947 725.314 933.492 725.314C938.193 725.314 942.816 724.452 947.36 722.728C951.905 720.848 955.588 718.576 958.409 715.912ZM1098.56 650.093C1089 650.093 1080.46 651.973 1072.94 655.735C1065.42 659.339 1060.01 664.589 1056.72 671.484V746H1025.22V622.825H1054.13V649.153C1058.52 640.69 1064.08 634.03 1070.82 629.172C1077.56 624.314 1084.69 621.65 1092.21 621.18C1093.94 621.18 1095.27 621.18 1096.21 621.18C1097.15 621.18 1097.93 621.258 1098.56 621.415V650.093ZM1230.6 746H1199.1V676.891C1199.1 667.018 1197.38 659.809 1193.93 655.264C1190.48 650.72 1185.7 648.447 1179.59 648.447C1175.36 648.447 1171.05 649.544 1166.66 651.738C1162.43 653.932 1158.59 656.988 1155.14 660.906C1151.7 664.667 1149.19 669.055 1147.62 674.07V746H1116.12V622.825H1144.57V645.627C1147.7 640.299 1151.7 635.832 1156.55 632.228C1161.41 628.467 1166.98 625.646 1173.24 623.766C1179.67 621.728 1186.41 620.71 1193.46 620.71C1201.14 620.71 1207.41 622.12 1212.27 624.941C1217.28 627.605 1221.04 631.288 1223.55 635.989C1226.21 640.534 1228.01 645.705 1228.96 651.503C1230.05 657.302 1230.6 663.178 1230.6 669.133V746Z" fill="#373F69"/>
<mask id="mask0_2004_19399" style="mask-type:luminance" maskUnits="userSpaceOnUse" x="0" y="0" width="1344" height="497">
<path d="M1344 0H0V496.797H1344V0Z" fill="white"/>
</mask>
<g mask="url(#mask0_2004_19399)">
<path d="M0 227.73V305.11C372.73 138.092 496.452 670.893 1253.01 346.809C1279.98 335.296 1302.98 316.118 1319.16 291.653C1335.33 267.189 1343.97 238.516 1344 209.188C518.574 611.065 391.005 53.2814 17.6587 201.716C12.4507 203.788 7.984 207.374 4.83597 212.012C1.68791 216.65 0.00335354 222.125 0 227.73Z" fill="#D64274"/>
<path d="M1340.47 33.2748C1092.77 -77.7114 955.047 120.331 668.485 170.602C829.844 198.908 1038.43 180.338 1340.47 33.2748Z" fill="#D64274"/>
<path d="M0 169.651C384.725 -2.76857 504.172 570.443 1328.03 177.353C1332.8 175.077 1336.84 171.496 1339.67 167.024C1342.49 162.551 1344 157.37 1344 152.079V73.7146C595.738 438.016 420.958 13.7078 116.692 41.7695C84.7999 44.7016 55.1536 59.4412 33.5662 83.0989C11.9789 106.756 0.00774106 137.624 0 169.651Z" fill="#018FA8"/>
<path d="M3.53613 348.3C251.178 237.313 388.928 435.356 675.486 485.636C514.09 513.928 305.548 495.363 3.53613 348.3Z" fill="#018FA8"/>
</g>
</svg>
