<?xml version="1.0" encoding="UTF-8"?>
<!DOCTYPE svg PUBLIC "-//W3C//DTD SVG 1.1//EN" "http://www.w3.org/Graphics/SVG/1.1/DTD/svg11.dtd">
<svg xmlns="http://www.w3.org/2000/svg" xmlns:xlink="http://www.w3.org/1999/xlink" version="1.1" width="670px" height="186px" viewBox="-0.5 -0.5 670 186"><defs><clipPath id="mx-clip-411-31-132-26-0"><rect x="411" y="31" width="132" height="26"/></clipPath><clipPath id="mx-clip-411-57-132-26-0"><rect x="411" y="57" width="132" height="26"/></clipPath><clipPath id="mx-clip-411-83-132-26-0"><rect x="411" y="83" width="132" height="26"/></clipPath><clipPath id="mx-clip-411-109-132-26-0"><rect x="411" y="109" width="132" height="26"/></clipPath><clipPath id="mx-clip-411-135-132-26-0"><rect x="411" y="135" width="132" height="26"/></clipPath><clipPath id="mx-clip-411-161-132-26-0"><rect x="411" y="161" width="132" height="26"/></clipPath><clipPath id="mx-clip-133-31-132-26-0"><rect x="133" y="31" width="132" height="26"/></clipPath><clipPath id="mx-clip-133-57-132-26-0"><rect x="133" y="57" width="132" height="26"/></clipPath><clipPath id="mx-clip-133-83-132-26-0"><rect x="133" y="83" width="132" height="26"/></clipPath><clipPath id="mx-clip-133-109-132-26-0"><rect x="133" y="109" width="132" height="26"/></clipPath><clipPath id="mx-clip-133-135-132-26-0"><rect x="133" y="135" width="132" height="26"/></clipPath><clipPath id="mx-clip-133-161-132-26-0"><rect x="133" y="161" width="132" height="26"/></clipPath></defs><g><path d="M 407 26 L 407 0 L 547 0 L 547 26" fill="none" stroke="rgb(0, 0, 0)" stroke-miterlimit="10" pointer-events="all"/><path d="M 407 26 L 407 182 L 547 182 L 547 26" fill="none" stroke="rgb(0, 0, 0)" stroke-miterlimit="10" pointer-events="none"/><path d="M 407 26 L 547 26" fill="none" stroke="rgb(0, 0, 0)" stroke-miterlimit="10" pointer-events="none"/><g fill="rgb(0, 0, 0)" font-family="Helvetica" pointer-events="none" text-anchor="middle" font-size="12px"><text x="476.5" y="17.5">node</text></g><g fill="rgb(0, 0, 0)" font-family="Helvetica" pointer-events="none" clip-path="url(#mx-clip-411-31-132-26-0)" font-size="12px"><text x="412.5" y="43.5">+ (string) name</text></g><rect x="407" y="52" width="140" height="26" fill="#67f2fc" stroke="#6c8ebf" pointer-events="none"/><g fill="rgb(0, 0, 0)" font-family="Helvetica" pointer-events="none" clip-path="url(#mx-clip-411-57-132-26-0)" font-size="12px"><text x="412.5" y="69.5">+ (string) Input1 </text></g><rect x="407" y="78" width="140" height="26" fill="#67f2fc" stroke="#6c8ebf" pointer-events="none"/><g fill="rgb(0, 0, 0)" font-family="Helvetica" pointer-events="none" clip-path="url(#mx-clip-411-83-132-26-0)" font-size="12px"><text x="412.5" y="95.5">+ (float) Input2</text></g><rect x="407" y="104" width="140" height="26" fill="#67f2fc" stroke="#6c8ebf" pointer-events="none"/><g fill="rgb(0, 0, 0)" font-family="Helvetica" pointer-events="none" clip-path="url(#mx-clip-411-109-132-26-0)" font-size="12px"><text x="412.5" y="121.5">+ (color4) InputN</text></g><rect x="407" y="130" width="140" height="26" fill="#d5e8d4" stroke="#82b366" pointer-events="none"/><g fill="rgb(0, 0, 0)" font-family="Helvetica" pointer-events="none" clip-path="url(#mx-clip-411-135-132-26-0)" font-size="12px"><text x="412.5" y="147.5">+ (color3) Output1</text></g><rect x="407" y="156" width="140" height="26" fill="#d5e8d4" stroke="#82b366" pointer-events="none"/><g fill="rgb(0, 0, 0)" font-family="Helvetica" pointer-events="none" clip-path="url(#mx-clip-411-161-132-26-0)" font-size="12px"><text x="412.5" y="173.5">+ (integer) OutputN</text></g><path d="M 544 143 L 653.63 143" fill="none" stroke="#c3b1b1" stroke-miterlimit="10" pointer-events="none"/><path d="M 658.88 143 L 651.88 146.5 L 653.63 143 L 651.88 139.5 Z" fill="#c3b1b1" stroke="#c3b1b1" stroke-miterlimit="10" pointer-events="none"/><path d="M 287 91.63 L 400.63 91.25" fill="none" stroke="#c3b1b1" stroke-miterlimit="10" pointer-events="none"/><path d="M 405.88 91.24 L 398.89 94.76 L 400.63 91.25 L 398.87 87.76 Z" fill="#c3b1b1" stroke="#c3b1b1" stroke-miterlimit="10" pointer-events="none"/><path d="M 285 65 L 400.63 65" fill="none" stroke="#c3b1b1" stroke-miterlimit="10" pointer-events="none"/><path d="M 405.88 65 L 398.88 68.5 L 400.63 65 L 398.88 61.5 Z" fill="#c3b1b1" stroke="#c3b1b1" stroke-miterlimit="10" pointer-events="none"/><path d="M 547 169 L 652.63 169" fill="none" stroke="#c3b1b1" stroke-miterlimit="10" pointer-events="none"/><path d="M 657.88 169 L 650.88 172.5 L 652.63 169 L 650.88 165.5 Z" fill="#c3b1b1" stroke="#c3b1b1" stroke-miterlimit="10" pointer-events="none"/><path d="M 129 26 L 129 0 L 269 0 L 269 26" fill="none" stroke="rgb(0, 0, 0)" stroke-miterlimit="10" pointer-events="none"/><path d="M 129 26 L 129 182 L 269 182 L 269 26" fill="none" stroke="rgb(0, 0, 0)" stroke-miterlimit="10" pointer-events="none"/><path d="M 129 26 L 269 26" fill="none" stroke="rgb(0, 0, 0)" stroke-miterlimit="10" pointer-events="none"/><g fill="rgb(0, 0, 0)" font-family="Helvetica" pointer-events="none" text-anchor="middle" font-size="12px"><text x="198.5" y="17.5">nodegraph</text></g><g fill="rgb(0, 0, 0)" font-family="Helvetica" pointer-events="none" clip-path="url(#mx-clip-133-31-132-26-0)" font-size="12px"><text x="134.5" y="43.5">+ (string) name</text></g><rect x="129" y="52" width="140" height="26" fill="#67f2fc" stroke="#6c8ebf" pointer-events="none"/><g fill="rgb(0, 0, 0)" font-family="Helvetica" pointer-events="none" clip-path="url(#mx-clip-133-57-132-26-0)" font-size="12px"><text x="134.5" y="69.5">+ (string) Input1 </text></g><rect x="129" y="78" width="140" height="26" fill="#67f2fc" stroke="#6c8ebf" pointer-events="none"/><g fill="rgb(0, 0, 0)" font-family="Helvetica" pointer-events="none" clip-path="url(#mx-clip-133-83-132-26-0)" font-size="12px"><text x="134.5" y="95.5">+ (matrix33) Input2</text></g><rect x="129" y="104" width="140" height="26" fill="#67f2fc" stroke="#6c8ebf" pointer-events="none"/><g fill="rgb(0, 0, 0)" font-family="Helvetica" pointer-events="none" clip-path="url(#mx-clip-133-109-132-26-0)" font-size="12px"><text x="134.5" y="121.5">+ (vector3) InputN</text></g><rect x="129" y="130" width="140" height="26" fill="#d5e8d4" stroke="#82b366" pointer-events="none"/><g fill="rgb(0, 0, 0)" font-family="Helvetica" pointer-events="none" clip-path="url(#mx-clip-133-135-132-26-0)" font-size="12px"><text x="134.5" y="147.5">+ (color3) Output1</text></g><rect x="129" y="156" width="140" height="26" fill="#d5e8d4" stroke="#82b366" pointer-events="none"/><g fill="rgb(0, 0, 0)" font-family="Helvetica" pointer-events="none" clip-path="url(#mx-clip-133-161-132-26-0)" font-size="12px"><text x="134.5" y="173.5">+ (integer) OutputN</text></g><path d="M 266 143 L 375.63 143" fill="none" stroke="#c3b1b1" stroke-miterlimit="10" pointer-events="none"/><path d="M 380.88 143 L 373.88 146.5 L 375.63 143 L 373.88 139.5 Z" fill="#c3b1b1" stroke="#c3b1b1" stroke-miterlimit="10" pointer-events="none"/><path d="M 9 91.63 L 122.63 91.25" fill="none" stroke="#c3b1b1" stroke-miterlimit="10" pointer-events="none"/><path d="M 127.88 91.24 L 120.89 94.76 L 122.63 91.25 L 120.87 87.76 Z" fill="#c3b1b1" stroke="#c3b1b1" stroke-miterlimit="10" pointer-events="none"/><path d="M 7 65 L 122.63 65" fill="none" stroke="#c3b1b1" stroke-miterlimit="10" pointer-events="none"/><path d="M 127.88 65 L 120.88 68.5 L 122.63 65 L 120.88 61.5 Z" fill="#c3b1b1" stroke="#c3b1b1" stroke-miterlimit="10" pointer-events="none"/><path d="M 269 169 L 374.63 169" fill="none" stroke="#c3b1b1" stroke-miterlimit="10" pointer-events="none"/><path d="M 379.88 169 L 372.88 172.5 L 374.63 169 L 372.88 165.5 Z" fill="#c3b1b1" stroke="#c3b1b1" stroke-miterlimit="10" pointer-events="none"/></g></svg>