<?xml version="1.0" encoding="UTF-8" standalone="no"?>
<svg
   width="222"
   height="222"
   viewBox="0 0 222 222"
   fill="none"
   version="1.1"
   id="svg1"
   sodipodi:docname="play_white.svg"
   inkscape:version="1.3.2 (091e20e, 2023-11-25)"
   xmlns:inkscape="http://www.inkscape.org/namespaces/inkscape"
   xmlns:sodipodi="http://sodipodi.sourceforge.net/DTD/sodipodi-0.dtd"
   xmlns="http://www.w3.org/2000/svg"
   xmlns:svg="http://www.w3.org/2000/svg">
  <sodipodi:namedview
     id="namedview1"
     pagecolor="#505050"
     bordercolor="#eeeeee"
     borderopacity="1"
     inkscape:showpageshadow="0"
     inkscape:pageopacity="0"
     inkscape:pagecheckerboard="0"
     inkscape:deskcolor="#505050"
     inkscape:zoom="1.0630631"
     inkscape:cx="110.52966"
     inkscape:cy="111"
     inkscape:window-width="1312"
     inkscape:window-height="449"
     inkscape:window-x="0"
     inkscape:window-y="25"
     inkscape:window-maximized="0"
     inkscape:current-layer="svg1" />
  <g
     clip-path="url(#clip0_2995_4349)"
     id="g1"
     style="fill:#f9f9f9"
     transform="matrix(1.5098277,0,0,1.513629,-52.401468,-53.235699)">
    <path
       d="m 64.4718,148.915 8.5455,-8.545 c -5.2805,-6.725 -8.6275,-14.762 -9.6809,-23.247 H 51.2651 c 1.1952,12.012 5.9759,22.948 13.2067,31.792 z M 81.4433,73.4397 C 88.1958,68.1683 96.2492,64.823 104.749,63.7588 V 51.6875 C 92.7377,52.8827 81.8019,57.6634 72.9576,64.8942 Z M 51.2651,105.172 h 12.0713 c 1.0757,-8.7252 4.5417,-16.6731 9.6809,-23.3063 l -8.5455,-8.4858 c -7.4411,9.063 -12.036,20.124 -13.2067,31.7921 z M 117,51.6875 v 12.0713 c 23.425,3.1074 41.532,23.1864 41.532,47.3882 0,24.203 -18.107,44.282 -41.532,47.389 v 12.071 c 30.058,-3.167 53.484,-28.624 53.484,-59.46 0,-30.835 -23.426,-56.2923 -53.484,-59.4595 z M 134.629,111.147 117,97.9408 98.7734,84.256 v 53.783 L 117,124.354 Z m -61.6714,46.254 c 9.0688,7.431 20.1267,12.025 31.7914,13.206 v -12.071 c -8.4998,-1.064 -16.5532,-4.409 -23.3057,-9.681 z"
       fill="black"
       id="path1"
       style="fill:#f9f9f9" />
  </g>
  <defs
     id="defs1">
    <clipPath
       id="clip0_2995_4349">
      <rect
         x="0.171875"
         y="0.59375"
         width="221.406"
         height="221.406"
         rx="110.703"
         fill="white"
         id="rect1" />
    </clipPath>
  </defs>
</svg>
