<svg width="140" height="140" viewBox="0 0 140 140" fill="none" xmlns="http://www.w3.org/2000/svg">
<path d="M52.6457 70.0003C52.6457 69.2225 52.7662 68.4934 53.0073 67.8128C53.2484 67.1323 53.6626 66.5003 54.2498 65.917L81.0832 39.0837C82.1526 38.0142 83.5137 37.4795 85.1665 37.4795C86.8193 37.4795 88.1804 38.0142 89.2498 39.0837C90.3193 40.1531 90.854 41.5142 90.854 43.167C90.854 44.8198 90.3193 46.1809 89.2498 47.2503L66.4998 70.0003L89.2498 92.7503C90.3193 93.8198 90.854 95.1809 90.854 96.8337C90.854 98.4864 90.3193 99.8475 89.2498 100.917C88.1804 101.986 86.8193 102.521 85.1665 102.521C83.5137 102.521 82.1526 101.986 81.0832 100.917L54.2498 74.0837C53.6665 73.5003 53.2523 72.8684 53.0073 72.1878C52.7623 71.5073 52.6418 70.7781 52.6457 70.0003Z" fill="black"/>
</svg>
