<svg width="180" height="180" viewBox="0 0 180 180" fill="none" xmlns="http://www.w3.org/2000/svg">
<path d="M19.9398 147.166L32.8421 134.232C24.8694 124.053 19.816 111.888 18.2256 99.0451H0C1.80455 117.227 9.02258 133.78 19.9398 147.166ZM45.5639 32.9248C55.759 24.9458 67.9182 19.8823 80.7515 18.2715V0C62.6165 1.80909 46.1053 9.0453 32.7519 19.99L45.5639 32.9248ZM0 80.9557H18.2256C19.8497 67.749 25.0828 55.7188 32.8421 45.6786L19.9398 32.8342C8.70507 46.5523 1.76756 63.2945 0 80.9557ZM99.2484 0V18.2715C134.616 22.9749 161.955 53.3671 161.955 89.9996C161.955 126.634 134.616 157.026 99.2484 161.729V180C144.631 175.206 180 136.674 180 89.9996C180 43.3269 144.631 4.79397 99.2484 0ZM125.865 89.9996L99.2484 70.0103L71.7293 49.2966V130.704L99.2484 109.99L125.865 89.9996ZM32.7519 160.011C46.4443 171.259 63.1398 178.212 80.7515 180V161.729C67.9182 160.118 55.759 155.055 45.5639 147.076L32.7519 160.011Z" fill="#F9F9F9"/>
</svg>
