<svg width="140" height="140" viewBox="0 0 140 140" fill="none" xmlns="http://www.w3.org/2000/svg">
<path d="M87.3543 69.9997C87.3543 70.7775 87.2338 71.5066 86.9927 72.1872C86.7516 72.8677 86.3374 73.4997 85.7502 74.083L58.9168 100.916C57.8474 101.986 56.4863 102.521 54.8335 102.521C53.1807 102.521 51.8196 101.986 50.7502 100.916C49.6807 99.8469 49.146 98.4858 49.146 96.833C49.146 95.1802 49.6807 93.8191 50.7502 92.7497L73.5002 69.9997L50.7502 47.2497C49.6807 46.1802 49.146 44.8191 49.146 43.1663C49.146 41.5136 49.6807 40.1525 50.7502 39.083C51.8196 38.0136 53.1807 37.4788 54.8335 37.4788C56.4863 37.4788 57.8474 38.0136 58.9168 39.083L85.7502 65.9163C86.3335 66.4997 86.7477 67.1316 86.9927 67.8122C87.2377 68.4927 87.3582 69.2219 87.3543 69.9997Z" fill="white"/>
</svg>
