<svg width="140" height="140" viewBox="0 0 140 140" fill="none" xmlns="http://www.w3.org/2000/svg">
<path d="M29.1667 87.5H17.5V110.833C17.5 117.25 22.75 122.5 29.1667 122.5H52.5V110.833H29.1667V87.5ZM29.1667 29.1667H52.5V17.5H29.1667C22.75 17.5 17.5 22.75 17.5 29.1667V52.5H29.1667V29.1667ZM110.833 17.5H87.5V29.1667H110.833V52.5H122.5V29.1667C122.5 22.75 117.25 17.5 110.833 17.5ZM110.833 110.833H87.5V122.5H110.833C117.25 122.5 122.5 117.25 122.5 110.833V87.5H110.833V110.833ZM70 46.6667C57.1083 46.6667 46.6667 57.1083 46.6667 70C46.6667 82.8917 57.1083 93.3333 70 93.3333C82.8917 93.3333 93.3333 82.8917 93.3333 70C93.3333 57.1083 82.8917 46.6667 70 46.6667ZM70 81.6667C63.5833 81.6667 58.3333 76.4167 58.3333 70C58.3333 63.5833 63.5833 58.3333 70 58.3333C76.4167 58.3333 81.6667 63.5833 81.6667 70C81.6667 76.4167 76.4167 81.6667 70 81.6667Z" fill="black"/>
</svg>
