<svg width="140" height="140" viewBox="0 0 140 140" fill="none" xmlns="http://www.w3.org/2000/svg">
<path d="M69.9998 87.3538C69.2221 87.3538 68.4929 87.2333 67.8123 86.9922C67.1318 86.7511 66.4998 86.3369 65.9165 85.7497L39.0832 58.9163C38.0137 57.8469 37.479 56.4858 37.479 54.833C37.479 53.1802 38.0137 51.8191 39.0832 50.7497C40.1526 49.6802 41.5137 49.1455 43.1665 49.1455C44.8193 49.1455 46.1804 49.6802 47.2498 50.7497L69.9998 73.4997L92.7498 50.7497C93.8193 49.6802 95.1804 49.1455 96.8332 49.1455C98.486 49.1455 99.8471 49.6802 100.917 50.7497C101.986 51.8191 102.521 53.1802 102.521 54.833C102.521 56.4858 101.986 57.8469 100.917 58.9163L74.0832 85.7497C73.4998 86.333 72.8679 86.7472 72.1873 86.9922C71.5068 87.2372 70.7776 87.3577 69.9998 87.3538Z" fill="white"/>
</svg>
