<svg width="90" height="90" viewBox="0 0 90 90" fill="none" xmlns="http://www.w3.org/2000/svg">
<path d="M11.25 11.25H18.75V18.75H11.25V11.25ZM26.25 11.25H33.75V18.75H26.25V11.25ZM41.25 11.25H48.75V18.75H41.25V11.25ZM56.25 11.25H63.75V18.75H56.25V11.25ZM71.25 11.25H78.75V18.75H71.25V11.25ZM71.25 26.25H78.75V33.75H71.25V26.25ZM11.25 71.25H18.75V78.75H11.25V71.25ZM11.25 56.25H18.75V63.75H11.25V56.25ZM11.25 41.25H18.75V48.75H11.25V41.25ZM11.25 26.25H18.75V33.75H11.25V26.25ZM40.0012 41.25L43.8862 35.4187C44.2288 34.9053 44.6928 34.4844 45.2371 34.1933C45.7813 33.9022 46.389 33.7499 47.0062 33.75H57.9938C58.611 33.7499 59.2187 33.9022 59.7629 34.1933C60.3072 34.4844 60.7712 34.9053 61.1138 35.4187L64.9987 41.25H75C75.9946 41.25 76.9484 41.6451 77.6517 42.3484C78.3549 43.0516 78.75 44.0054 78.75 45V75C78.75 75.9946 78.3549 76.9484 77.6517 77.6517C76.9484 78.3549 75.9946 78.75 75 78.75H30C29.0054 78.75 28.0516 78.3549 27.3484 77.6517C26.6451 76.9484 26.25 75.9946 26.25 75V45C26.25 44.0054 26.6451 43.0516 27.3484 42.3484C28.0516 41.6451 29.0054 41.25 30 41.25H40.0012ZM33.75 71.25H71.25V48.75H60.9863L55.9875 41.25H49.0125L44.0138 48.75H33.75V71.25ZM52.5 67.5C50.5109 67.5 48.6032 66.7098 47.1967 65.3033C45.7902 63.8968 45 61.9891 45 60C45 58.0109 45.7902 56.1032 47.1967 54.6967C48.6032 53.2902 50.5109 52.5 52.5 52.5C54.4891 52.5 56.3968 53.2902 57.8033 54.6967C59.2098 56.1032 60 58.0109 60 60C60 61.9891 59.2098 63.8968 57.8033 65.3033C56.3968 66.7098 54.4891 67.5 52.5 67.5Z" fill="black"/>
</svg>
