<svg width="140" height="140" viewBox="0 0 140 140" fill="none" xmlns="http://www.w3.org/2000/svg">
<path d="M70.0002 52.6462C70.7779 52.6462 71.5071 52.7667 72.1877 53.0078C72.8682 53.2489 73.5002 53.6631 74.0835 54.2503L100.917 81.0837C101.986 82.1531 102.521 83.5142 102.521 85.167C102.521 86.8198 101.986 88.1809 100.917 89.2503C99.8474 90.3198 98.4863 90.8545 96.8335 90.8545C95.1807 90.8545 93.8196 90.3198 92.7502 89.2503L70.0002 66.5003L47.2502 89.2503C46.1807 90.3198 44.8196 90.8545 43.1668 90.8545C41.514 90.8545 40.1529 90.3198 39.0835 89.2503C38.0141 88.1809 37.4793 86.8198 37.4793 85.167C37.4793 83.5142 38.0141 82.1531 39.0835 81.0837L65.9168 54.2503C66.5002 53.667 67.1321 53.2528 67.8127 53.0078C68.4932 52.7628 69.2224 52.6423 70.0002 52.6462Z" fill="black"/>
</svg>
