<svg width="50" height="50" viewBox="0 0 50 50" fill="none" xmlns="http://www.w3.org/2000/svg">
<rect width="49.5122" height="49.5122" rx="24.7561" fill="black"/>
<path d="M36.9434 14.4436H12.5684C12.0498 14.4436 11.6309 14.8625 11.6309 15.3811V34.1311C11.6309 34.6497 12.0498 35.0686 12.5684 35.0686H36.9434C37.4619 35.0686 37.8809 34.6497 37.8809 34.1311V15.3811C37.8809 14.8625 37.4619 14.4436 36.9434 14.4436ZM19.6582 18.6623C20.6924 18.6623 21.5332 19.5032 21.5332 20.5373C21.5332 21.5715 20.6924 22.4123 19.6582 22.4123C18.624 22.4123 17.7832 21.5715 17.7832 20.5373C17.7832 19.5032 18.624 18.6623 19.6582 18.6623ZM34.7139 31.468C34.6712 31.5039 34.6173 31.5236 34.5615 31.5237H14.9473C14.8184 31.5237 14.7129 31.4182 14.7129 31.2893C14.7129 31.2336 14.7334 31.1809 14.7686 31.137L19.7578 25.219C19.8398 25.1194 19.9893 25.1077 20.0889 25.1897C20.0977 25.1985 20.1094 25.2073 20.1182 25.219L23.0303 28.676L27.6621 23.1829C27.7441 23.0832 27.8936 23.0715 27.9932 23.1536C28.002 23.1623 28.0137 23.1711 28.0225 23.1829L34.749 31.1399C34.8252 31.2366 34.8135 31.386 34.7139 31.468Z" fill="white"/>
</svg>
