<svg width="1344" height="801" viewBox="0 0 1344 801" fill="none" xmlns="http://www.w3.org/2000/svg">
<path d="M360.009 746V602.375L294.425 714.736H286.433L220.85 602.375V746H208.861V579.103H220.85L290.429 698.517L360.009 579.103H371.997V746H360.009Z" fill="#018FA8"/>
<path d="M409.58 579.103L467.877 654.794L525.938 579.103H539.807L474.459 663.727L537.926 746H524.057L467.877 672.659L411.461 746H397.357L460.825 663.727L395.476 579.103H409.58Z" fill="#D64274"/>
<path d="M623.67 746V579.103H635.659V735.187H735.327V746H623.67ZM805.008 748.351C796.389 748.351 788.396 746.705 781.031 743.414C773.665 739.967 767.24 735.344 761.755 729.545C756.427 723.59 752.196 716.773 749.062 709.095C746.084 701.259 744.596 693.032 744.596 684.413C744.596 672.816 747.181 662.316 752.353 652.914C757.524 643.511 764.655 635.989 773.744 630.347C782.833 624.549 793.019 621.65 804.302 621.65C815.899 621.65 826.164 624.549 835.096 630.347C844.029 636.146 851.081 643.825 856.252 653.384C861.58 662.787 864.244 673.129 864.244 684.413C864.244 685.353 864.244 686.293 864.244 687.233C864.244 688.174 864.166 688.957 864.009 689.584H756.819C757.446 698.83 760.032 707.214 764.576 714.736C769.121 722.258 774.919 728.213 781.971 732.601C789.18 736.832 797.015 738.948 805.478 738.948C813.94 738.948 821.932 736.754 829.454 732.366C836.977 727.978 842.226 722.337 845.204 715.441L855.547 718.262C853.196 724.06 849.435 729.232 844.264 733.777C839.249 738.321 833.294 741.926 826.399 744.59C819.66 747.097 812.53 748.351 805.008 748.351ZM756.349 680.417H852.961C852.334 670.857 849.827 662.395 845.439 655.029C841.051 647.664 835.253 641.866 828.044 637.634C820.992 633.403 813.157 631.288 804.537 631.288C795.918 631.288 788.083 633.403 781.031 637.634C773.979 641.866 768.259 647.664 763.871 655.029C759.483 662.395 756.976 670.857 756.349 680.417ZM879.996 710.74C879.996 703.375 882.19 697.028 886.577 691.7C890.965 686.215 896.999 681.984 904.678 679.006C912.356 675.872 921.211 674.305 931.24 674.305C937.508 674.305 944.012 674.853 950.751 675.95C957.489 677.047 963.522 678.536 968.851 680.417V668.898C968.851 657.615 965.56 648.604 958.978 641.866C952.553 635.127 943.62 631.758 932.18 631.758C926.069 631.758 919.722 633.011 913.14 635.519C906.558 638.026 899.819 641.631 892.924 646.332L887.988 637.87C895.98 632.541 903.659 628.545 911.024 625.881C918.546 623.06 925.99 621.65 933.356 621.65C947.93 621.65 959.448 625.959 967.91 634.579C976.373 643.198 980.604 654.951 980.604 669.839V730.486C980.604 732.366 980.996 733.777 981.779 734.717C982.72 735.657 984.052 736.206 985.775 736.362V746C984.365 746.157 983.19 746.235 982.249 746.235C981.309 746.235 980.526 746.235 979.899 746.235C976.921 745.765 974.571 744.511 972.847 742.474C971.28 740.437 970.418 738.164 970.261 735.657V726.019C964.619 733.071 957.332 738.556 948.4 742.474C939.624 746.392 930.378 748.351 920.662 748.351C912.983 748.351 906.01 746.705 899.741 743.414C893.629 740.123 888.771 735.657 885.167 730.015C881.719 724.217 879.996 717.792 879.996 710.74ZM964.149 720.848C965.716 718.811 966.892 716.852 967.675 714.971C968.459 713.091 968.851 711.367 968.851 709.8V689.584C963.209 687.39 957.332 685.745 951.221 684.648C945.109 683.551 938.84 683.002 932.415 683.002C920.192 683.002 910.241 685.431 902.562 690.289C895.04 695.147 891.279 701.729 891.279 710.035C891.279 715.206 892.611 719.986 895.275 724.374C897.939 728.762 901.622 732.288 906.323 734.952C911.181 737.616 916.744 738.948 923.013 738.948C931.789 738.948 939.859 737.303 947.225 734.012C954.747 730.564 960.388 726.176 964.149 720.848ZM1074.19 634.344C1063.22 634.657 1053.58 637.948 1045.27 644.216C1037.12 650.328 1031.4 658.79 1028.11 669.603V746H1016.36V623.766H1027.64V653.854C1031.87 645.235 1037.52 638.261 1044.57 632.933C1051.62 627.448 1059.06 624.314 1066.9 623.53C1068.47 623.374 1069.88 623.295 1071.13 623.295C1072.38 623.295 1073.4 623.295 1074.19 623.295V634.344ZM1196.38 746H1184.62V677.831C1184.62 662.16 1182.35 650.72 1177.81 643.511C1173.42 636.146 1166.37 632.463 1156.65 632.463C1149.76 632.463 1142.94 634.108 1136.2 637.399C1129.62 640.69 1123.82 645.235 1118.81 651.033C1113.95 656.675 1110.42 663.1 1108.23 670.309V746H1096.48V623.766H1107.52V652.914C1110.81 646.645 1115.2 641.239 1120.69 636.694C1126.17 631.993 1132.28 628.31 1139.02 625.646C1145.76 622.982 1152.73 621.65 1159.94 621.65C1166.68 621.65 1172.32 622.904 1176.87 625.411C1181.57 627.762 1185.33 631.209 1188.15 635.754C1191.13 640.299 1193.24 645.94 1194.5 652.679C1195.75 659.417 1196.38 667.096 1196.38 675.715V746Z" fill="#373F69"/>
<mask id="mask0_2004_19398" style="mask-type:luminance" maskUnits="userSpaceOnUse" x="0" y="0" width="1344" height="497">
<path d="M1344 0H0V496.797H1344V0Z" fill="white"/>
</mask>
<g mask="url(#mask0_2004_19398)">
<path d="M0 227.73V305.11C372.73 138.092 496.452 670.893 1253.01 346.809C1279.98 335.296 1302.98 316.118 1319.16 291.653C1335.33 267.189 1343.97 238.516 1344 209.188C518.574 611.065 391.005 53.2814 17.6587 201.716C12.4507 203.788 7.984 207.374 4.83597 212.012C1.68791 216.65 0.00335354 222.125 0 227.73Z" fill="#D64274"/>
<path d="M1340.47 33.275C1092.77 -77.7112 955.047 120.331 668.485 170.602C829.844 198.908 1038.43 180.338 1340.47 33.275Z" fill="#D64274"/>
<path d="M0 169.651C384.725 -2.76856 504.172 570.443 1328.03 177.353C1332.8 175.077 1336.84 171.496 1339.67 167.024C1342.49 162.551 1344 157.37 1344 152.079V73.7146C595.738 438.016 420.958 13.7078 116.692 41.7695C84.7999 44.7016 55.1536 59.4412 33.5662 83.0989C11.9788 106.756 0.00774106 137.624 0 169.651Z" fill="#018FA8"/>
<path d="M3.53613 348.3C251.178 237.314 388.928 435.356 675.486 485.636C514.09 513.928 305.548 495.363 3.53613 348.3Z" fill="#018FA8"/>
</g>
</svg>
