<svg width="989" height="170" viewBox="0 0 989 170" fill="none" xmlns="http://www.w3.org/2000/svg">
<path d="M152.009 167V23.3745L86.4253 135.736H78.433L12.8495 23.3745V167H0.861164V0.10294H12.8495L82.4292 119.517L152.009 0.10294H163.997V167H152.009Z" fill="#018FA8"/>
<path d="M201.58 0.10294L259.877 75.7943L317.938 0.10294H331.807L266.459 84.7268L329.926 167H316.057L259.877 93.6593L203.461 167H189.357L252.825 84.7268L187.476 0.10294H201.58Z" fill="#D64274"/>
<path d="M415.67 167V0.10294H427.659V156.187H527.327V167H415.67ZM597.008 169.351C588.389 169.351 580.396 167.705 573.031 164.414C565.665 160.967 559.24 156.344 553.755 150.545C548.427 144.59 544.196 137.773 541.062 130.095C538.084 122.259 536.596 114.032 536.596 105.413C536.596 93.816 539.181 83.3164 544.353 73.9138C549.524 64.5111 556.655 56.989 565.744 51.3474C574.833 45.5491 585.019 42.6499 596.302 42.6499C607.899 42.6499 618.164 45.5491 627.096 51.3474C636.029 57.1457 643.081 64.8245 648.252 74.3839C653.58 83.7865 656.244 94.1295 656.244 105.413C656.244 106.353 656.244 107.293 656.244 108.233C656.244 109.174 656.166 109.957 656.009 110.584H548.819C549.446 119.83 552.032 128.214 556.576 135.736C561.121 143.258 566.919 149.213 573.971 153.601C581.18 157.832 589.015 159.948 597.478 159.948C605.94 159.948 613.932 157.754 621.454 153.366C628.977 148.978 634.226 143.337 637.204 136.441L647.547 139.262C645.196 145.06 641.435 150.232 636.264 154.777C631.249 159.321 625.294 162.926 618.399 165.59C611.66 168.097 604.53 169.351 597.008 169.351ZM548.349 101.417H644.961C644.334 91.8571 641.827 83.3948 637.439 76.0293C633.051 68.6639 627.253 62.8656 620.044 58.6344C612.992 54.4032 605.157 52.2877 596.537 52.2877C587.918 52.2877 580.083 54.4032 573.031 58.6344C565.979 62.8656 560.259 68.6639 555.871 76.0293C551.483 83.3948 548.976 91.8571 548.349 101.417ZM671.996 131.74C671.996 124.375 674.19 118.028 678.577 112.7C682.965 107.215 688.999 102.984 696.678 100.006C704.356 96.8719 713.211 95.3048 723.24 95.3048C729.508 95.3048 736.012 95.8533 742.751 96.9503C749.489 98.0472 755.522 99.536 760.851 101.417V89.8983C760.851 78.6151 757.56 69.6042 750.978 62.8656C744.553 56.1271 735.62 52.7578 724.18 52.7578C718.069 52.7578 711.722 54.0115 705.14 56.5188C698.558 59.0262 691.819 62.6306 684.924 67.3319L679.988 58.8695C687.98 53.5413 695.659 49.5452 703.024 46.8811C710.546 44.0603 717.99 42.6499 725.356 42.6499C739.93 42.6499 751.448 46.9595 759.91 55.5786C768.373 64.1977 772.604 75.951 772.604 90.8385V151.486C772.604 153.366 772.996 154.777 773.779 155.717C774.72 156.657 776.052 157.206 777.775 157.362V167C776.365 167.157 775.19 167.235 774.249 167.235C773.309 167.235 772.526 167.235 771.899 167.235C768.921 166.765 766.571 165.511 764.847 163.474C763.28 161.437 762.418 159.164 762.261 156.657V147.019C756.619 154.071 749.332 159.556 740.4 163.474C731.624 167.392 722.378 169.351 712.662 169.351C704.983 169.351 698.01 167.705 691.741 164.414C685.629 161.123 680.771 156.657 677.167 151.015C673.719 145.217 671.996 138.792 671.996 131.74ZM756.149 141.848C757.716 139.811 758.892 137.852 759.675 135.971C760.459 134.091 760.851 132.367 760.851 130.8V110.584C755.209 108.39 749.332 106.745 743.221 105.648C737.109 104.551 730.84 104.002 724.415 104.002C712.192 104.002 702.241 106.431 694.562 111.289C687.04 116.147 683.279 122.729 683.279 131.035C683.279 136.206 684.611 140.986 687.275 145.374C689.939 149.762 693.622 153.288 698.323 155.952C703.181 158.616 708.744 159.948 715.013 159.948C723.789 159.948 731.859 158.303 739.225 155.012C746.747 151.564 752.388 147.176 756.149 141.848ZM866.186 55.3435C855.216 55.6569 845.579 58.9479 837.273 65.2163C829.124 71.328 823.404 79.7904 820.113 90.6035V167H808.36V44.7655H819.643V74.854C823.874 66.2349 829.516 59.2613 836.568 53.9331C843.62 48.4482 851.063 45.314 858.899 44.5305C860.466 44.3738 861.876 44.2954 863.13 44.2954C864.384 44.2954 865.402 44.2954 866.186 44.2954V55.3435ZM988.378 167H976.625V98.8308C976.625 83.1597 974.353 71.7198 969.808 64.5111C965.42 57.1457 958.368 53.463 948.652 53.463C941.757 53.463 934.94 55.1085 928.201 58.3994C921.619 61.6903 915.821 66.2349 910.806 72.0332C905.948 77.6748 902.422 84.1 900.228 91.3087V167H888.475V44.7655H899.523V73.9138C902.814 67.6453 907.202 62.2388 912.687 57.6942C918.172 52.9929 924.283 49.3101 931.022 46.6461C937.761 43.982 944.734 42.6499 951.943 42.6499C958.682 42.6499 964.323 43.9036 968.868 46.411C973.569 48.7617 977.33 52.2093 980.151 56.7539C983.128 61.2985 985.244 66.9401 986.498 73.6787C987.751 80.4173 988.378 88.0961 988.378 96.7152V167Z" fill="#373F69"/>
</svg>
