<svg width="1344" height="497" viewBox="0 0 1344 497" fill="none" xmlns="http://www.w3.org/2000/svg">
<mask id="mask0_2004_19401" style="mask-type:luminance" maskUnits="userSpaceOnUse" x="0" y="0" width="1344" height="497">
<path d="M1344 0H0V496.797H1344V0Z" fill="white"/>
</mask>
<g mask="url(#mask0_2004_19401)">
<path d="M0 227.73V305.11C372.73 138.092 496.452 670.893 1253.01 346.809C1279.98 335.296 1302.98 316.118 1319.16 291.653C1335.33 267.189 1343.97 238.516 1344 209.188C518.574 611.065 391.005 53.2814 17.6587 201.716C12.4507 203.788 7.984 207.374 4.83597 212.012C1.68791 216.65 0.00335354 222.125 0 227.73Z" fill="#D64274"/>
<path d="M1340.47 33.2748C1092.77 -77.7114 955.047 120.331 668.485 170.602C829.844 198.908 1038.43 180.338 1340.47 33.2748Z" fill="#D64274"/>
<path d="M0 169.651C384.725 -2.76857 504.172 570.443 1328.03 177.353C1332.8 175.077 1336.84 171.496 1339.67 167.024C1342.49 162.551 1344 157.37 1344 152.079V73.7146C595.738 438.016 420.958 13.7078 116.692 41.7695C84.7999 44.7016 55.1536 59.4412 33.5662 83.0989C11.9789 106.756 0.00774106 137.624 0 169.651Z" fill="#018FA8"/>
<path d="M3.53613 348.3C251.178 237.313 388.928 435.356 675.486 485.636C514.09 513.928 305.548 495.363 3.53613 348.3Z" fill="#018FA8"/>
</g>
</svg>
