<?xml version="1.0" encoding="UTF-8" standalone="no"?>
<svg
   width="1024"
   height="1024"
   version="1.1"
   id="svg66"
   sodipodi:docname="materialtoy_ai_3.svg"
   inkscape:version="1.3.2 (091e20e, 2023-11-25, custom)"
   xmlns:inkscape="http://www.inkscape.org/namespaces/inkscape"
   xmlns:sodipodi="http://sodipodi.sourceforge.net/DTD/sodipodi-0.dtd"
   xmlns="http://www.w3.org/2000/svg"
   xmlns:svg="http://www.w3.org/2000/svg">
  <defs
     id="defs66" />
  <sodipodi:namedview
     id="namedview66"
     pagecolor="#505050"
     bordercolor="#eeeeee"
     borderopacity="1"
     inkscape:showpageshadow="0"
     inkscape:pageopacity="0"
     inkscape:pagecheckerboard="0"
     inkscape:deskcolor="#d1d1d1"
     inkscape:zoom="0.82311649"
     inkscape:cx="208.35447"
     inkscape:cy="480.49092"
     inkscape:window-width="1350"
     inkscape:window-height="1051"
     inkscape:window-x="3938"
     inkscape:window-y="98"
     inkscape:window-maximized="0"
     inkscape:current-layer="svg66" />
  <path
     fill="#89D2EF"
     d="M901.334 523.971L901.986 524L902.75 523.972C904.009 524.883 904.321 525.815 904.587 527.307C905.695 533.517 906.107 543.276 904.015 549.25C901.736 555.753 899.771 562.36 896.844 568.616C888.958 585.471 875.636 596.743 859.179 604.742C851.805 608.326 842.918 610.941 834.77 612.078C833.475 612.259 831.251 612.796 830.009 612.595L830.012 592.146C841.719 589.731 852.058 586.591 862.441 580.419C878.502 570.871 890.573 555.919 897.237 538.513C899.053 533.771 900.082 528.875 901.334 523.971Z"
     id="path2" />
  <path
     fill="#89D2EF"
     d="M115.778 524.023C120.696 547.155 133.093 566.445 153.124 579.367C163.506 586.064 174.852 590.037 187.034 591.943L187.343 616.25C187.367 620.402 187.704 625.083 187.092 629.183C186.328 624.189 186.867 618.201 186.857 613.101C173.88 609.884 161.468 607.915 149.982 600.401C131.527 588.327 118.128 571.741 112.944 550C111.581 544.285 111.932 537.905 112.046 532.033C112.096 529.496 112.003 526.531 113.236 524.25C114.279 524.39 113.823 524.409 114.948 524.196L115.778 524.023Z"
     id="path3" />
  <path
     fill="#FEFEFE"
     d="M141.919 794.025C136.864 789.891 132.238 786.377 127.776 781.468C119.861 772.759 114.667 761.806 112.596 750.25C111.246 742.718 111.93 734.174 111.931 726.5L111.936 688.345L111.96 616.611L112.194 576.952C114.151 586.098 118.019 594.873 123.432 602.5C134.569 618.189 152.343 629.201 170.75 634.187C176.101 635.637 181.739 636.299 187.192 637.298L187.106 703.468C167.435 715.259 151.074 732.576 145.366 755.328C142.454 766.937 140.616 781.167 143.851 792.873L141.919 794.025Z"
     id="path4" />
  <path
     fill="#FEFEFE"
     d="M829.94 636.644C851.921 635.654 873.607 625.714 888.333 609.25C893.918 603.005 898.649 596.018 901.865 588.274C903.06 585.397 903.786 582.391 905.117 579.573L905.895 632.91L905.943 691.113L905.942 725.064C905.922 734.618 906.306 744.677 904.174 754.041C901.277 766.769 894.657 776.295 886.096 785.887C883.074 789.271 879.03 792.324 875 794.389L873.525 793.933C874.948 784.423 875.546 775.111 874.086 765.554C870.757 743.772 859.27 725.419 842.182 711.718C838.261 708.574 833.916 706.001 829.864 703.024L829.94 636.644Z"
     id="path5" />
  <path
     fill="#FEFEFE"
     d="M548.96 124.694C549.39 124.357 549.752 123.908 550.25 123.682C552.394 122.708 622.054 123.847 630.75 123.833L749.992 123.796C766.001 123.927 782.757 122.544 798.644 124.433C820.303 127.008 844.08 139.607 857.446 157.005C865.203 167.101 871.431 178.912 872.112 191.846C868.982 189.747 865.451 186.242 861.798 185.738L861.142 185.527C855.835 179.102 850.941 172.891 844.566 167.415C827.184 152.484 804.787 146.307 782.153 148.179C766.443 149.479 750.226 155.825 738.073 165.881C731.69 171.163 726.287 177.614 720.929 183.898L592.769 184.007L590.685 175.791C584.294 153.017 569.184 136.196 548.96 124.694Z"
     id="path6" />
  <path
     fill="#89D2EF"
     d="M143.851 792.873C148.302 814.29 160.507 834.8 179.062 846.967C198.409 859.652 221.201 864.59 244 859.825C265.865 855.255 284.803 842.878 296.984 823.943L297.979 822.354L423.687 822.085C427.744 844.378 439.747 866.321 458.663 879.402C478.045 892.804 502.223 897.233 525.302 892.888C546.938 888.814 566.147 877.136 578.628 858.83C586.347 847.509 590.387 835.621 593.032 822.312L627.513 822.145L683.571 822.155L708.139 822.231C711.808 822.224 716.389 821.665 719.939 822.428C732.087 840.705 749.81 855.194 771.797 859.527C795.116 864.122 818.446 860.373 838.24 846.805C851.575 837.664 862.586 823.904 868.783 809.003C870.737 804.304 871.931 799.361 873.326 794.479L874.864 795.366L875.33 795.584C875.801 800.502 875.485 805.589 875.02 810.5L874.773 812.936C872.693 826.983 866.041 842.25 856.25 852.651C851.043 858.182 845.118 862.699 839.25 867.454C837.153 869.154 834.908 870.522 832.5 871.745L828.171 873.652L827.497 873.997L823.497 875.497L821.5 876.245C820.399 876.702 819.348 876.876 818.232 877.248L817.497 877.497L816.5 877.745C815.448 878.291 815.661 878.245 814.5 878.245C813.019 879.232 813.767 878.246 812.75 878.5C811.577 878.793 811.617 879.245 810 879.245C808.976 879.928 808.691 879.745 807.5 879.745L806.75 880.245C806.046 880.159 805.185 880.001 804.5 880.245C802.747 880.869 801.172 880.557 799.25 880.745L798.75 881.245L788.489 881.261C786.768 881.26 784.658 881.511 783.003 880.997C780.781 880.309 778.915 881.074 776.798 880.233L776.25 880C775.488 880.156 774.891 880.307 774.111 880.152L769.75 879.245L768.503 878.997L766.503 878.497L765.75 878.245C765.078 878.063 764.443 877.988 763.768 877.763L758.503 875.997C755.752 875.11 753.225 873.728 750.625 872.497L750 872.245L749.255 871.75C748.574 871.382 747.976 871.245 747.296 870.791C746.105 869.997 744.956 869.217 743.673 868.574L743 868.245L742.255 867.75C741.07 866.981 739.997 866.197 739 865.192C734.274 860.426 728.79 856.661 724.77 851.129L724.324 850.5C722.391 847.915 720.83 845.447 719.39 842.568C715.368 841.816 710.763 842.193 706.65 842.178L685.044 842.035L595.258 842.186C594.411 850.887 592.086 859.719 588.459 867.671C579.364 887.614 562.908 902.766 542.253 910.238L533.49 912.922C532.301 913.187 531.066 913.772 529.906 913.918C528.832 914.053 527.736 914.017 526.719 914.426C525.991 914.719 526.462 914.605 525.516 914.762L524.75 914.876C523.47 915.103 521.935 914.911 520.75 915.218C518.961 915.681 517.444 915.537 515.644 915.885C512.217 916.547 505.657 916.933 502.271 916.135C500.674 915.76 499.116 915.883 497.522 915.554C496.341 915.31 495.145 915.389 493.99 915.109C491.359 914.472 488.611 914.379 486 913.732L484.75 913.389C483.91 913.248 483.246 913.261 482.402 913.01C466.167 908.184 448.579 898.508 438.168 884.747C435.698 881.483 433.149 878.329 431.143 874.741C426.075 865.675 423.982 856.526 421.882 846.5L421.157 842.044C417.874 841.295 413.899 841.817 410.549 842.017L399.133 842.174L336.5 841.992L305.423 842.082C303.732 842.124 300.114 841.737 298.619 842.252C298.609 842.256 297.804 843.245 297.799 843.251C295.682 845.873 294.039 848.844 291.897 851.436C287.131 857.204 280.785 863.68 274.33 867.526C271.03 869.493 268 871.625 264.5 873.245L257.247 876.263L254.998 876.997C254.275 877.244 253.609 877.48 252.858 877.629L252.25 877.745C251.42 877.961 250.943 878.145 250.047 878.207L249.25 878.245C248.158 879.337 248.494 878.252 247.5 878.5C247.158 878.585 247.088 879.144 246.75 879.245C246.191 879.412 245.583 879.245 245 879.245C243.614 880.169 243.958 879.258 242.75 879.5C242.666 879.517 241.869 880.2 241.75 880.245C241.31 880.41 240.028 880.245 239.5 880.245C237.978 881.26 236.61 880.172 235 880.745C231.845 881.867 228.353 880.874 225 881.122C222.505 881.308 220.009 881.253 217.5 881.245C216.364 880.12 213.088 881.096 211.25 880C210.474 880.166 209.959 880.34 209.18 880.083C207.99 879.692 206.515 879.519 205.25 879.245C204.556 879.094 203.949 878.99 203.268 878.763L200.25 877.745C199.578 877.563 198.943 877.488 198.268 877.263L194.502 875.997C191.547 875.161 187.764 873.39 185.095 871.816L184.531 871.469C170.295 863.407 157.882 852.486 150.216 837.804C147.948 833.46 145.626 828.675 144.174 823.997C142.15 817.476 142.028 809.167 141.723 802.359C141.606 799.739 141.132 796.516 141.919 794.025L143.851 792.873Z"
     id="path7" />
  <path
     fill="#002458"
     d="M468.607 124.711C490.803 114.459 516.11 111.972 539.383 120.551L548.96 124.694C569.184 136.196 584.294 153.017 590.685 175.791L592.769 184.007L720.929 183.898C726.287 177.614 731.69 171.163 738.073 165.881C750.226 155.825 766.443 149.479 782.153 148.179C804.787 146.307 827.184 152.484 844.566 167.415C850.941 172.891 855.835 179.102 861.142 185.527C861.695 186.444 864.521 191.807 865.158 192.124C879.965 197.971 892.735 213.805 898.951 228.045C902.928 237.153 904.845 246.16 905.526 256.062C906.133 264.893 905.901 273.87 905.918 282.719L905.869 330.565L905.931 448.077L905.864 486.938C905.833 491.453 906.582 499.027 905.13 503.25C904.104 503.613 904.28 503.764 903.201 503.307L902.6 503.056L901.334 523.971C900.082 528.875 899.053 533.771 897.237 538.513C890.573 555.919 878.502 570.871 862.441 580.419C852.058 586.591 841.719 589.731 830.012 592.146L830.009 612.595L829.94 636.644L829.864 703.024C833.916 706.001 838.261 708.574 842.182 711.718C859.27 725.419 870.757 743.772 874.086 765.554C875.546 775.111 874.948 784.423 873.525 793.933L873.326 794.479C871.931 799.361 870.737 804.304 868.783 809.003C862.586 823.904 851.575 837.664 838.24 846.805C818.446 860.373 795.116 864.122 771.797 859.527C749.81 855.194 732.087 840.705 719.939 822.428C716.389 821.665 711.808 822.224 708.139 822.231L683.571 822.155L627.513 822.145L593.032 822.312C590.387 835.621 586.347 847.509 578.628 858.83C566.147 877.136 546.938 888.814 525.302 892.888C502.223 897.233 478.045 892.804 458.663 879.402C439.747 866.321 427.744 844.378 423.687 822.085L297.979 822.354L296.984 823.943C284.803 842.878 265.865 855.255 244 859.825C221.201 864.59 198.409 859.652 179.062 846.967C160.507 834.8 148.302 814.29 143.851 792.873C140.616 781.167 142.454 766.937 145.366 755.328C151.074 732.576 167.435 715.259 187.106 703.468L187.192 637.298L187.092 629.183C187.704 625.083 187.367 620.402 187.343 616.25L187.034 591.943C174.852 590.037 163.506 586.064 153.124 579.367C133.093 566.445 120.696 547.155 115.778 524.023C114.697 517.664 114.587 511.324 114.478 504.894L112.466 503.505C111.741 501.588 111.906 498.946 111.822 496.89L111.892 477.237L111.953 454.443L111.943 354.865L111.941 289.504L112.02 254.905C112.179 250.538 112.874 245.977 113.972 241.75C118.859 222.929 130.279 204.432 147.75 194.904C149.036 194.203 149.429 194.14 150.843 194.5L154.586 188.307C150.836 187.808 148.204 189.834 145.285 191.976L144.694 192.417C146.493 176.36 154.112 161.699 165.497 150.288C178.371 137.386 194.176 129.098 211.988 125.384C222.423 123.207 233.544 123.62 244.163 123.6L289.058 123.833L453.09 123.425L464.747 123.457C465.308 123.473 467.073 123.376 467.5 123.61C467.957 123.86 468.238 124.344 468.607 124.711Z"
     id="path8"
     style="fill:#241f31" />
  <path
     fill="#C9F0FA"
     d="M309.824 248.72L309.841 249.221C309.882 250.207 309.912 251.015 310.21 251.962C311.116 254.84 310.917 258.357 310.826 261.355C310.616 268.25 310.124 277.752 306.848 283.951L300.034 276.684C304.707 267.558 307.73 258.734 309.824 248.72Z"
     id="path9" />
  <path
     fill="#C9F0FA"
     d="M707.746 249.612C709.612 259.498 712.918 267.509 717.306 276.532L710.615 283.938C709.468 282.191 708.77 280.689 708.255 278.652C706.716 272.568 704.493 255.147 707.746 249.612Z"
     id="path10" />
  <path
     fill="#89D2EF"
     d="M736.84 315.056L748.016 304.756C759.881 312.834 775.224 316.295 789.451 316.632L789.502 336.613C778.191 335.867 765.945 333.686 755.734 328.642C748.777 325.205 742.598 320.185 736.84 315.056Z"
     id="path11" />
  <path
     fill="#89D2EF"
     d="M228.118 359.12L228.158 316.623C242.849 316.319 256.865 312.673 269.411 304.936L280.247 314.69C276.639 318.127 272.929 321.666 268.75 324.42C257.411 331.895 242.076 336.668 228.489 336.557C228.518 343.835 229.241 351.953 228.118 359.12Z"
     id="path12" />
  <path
     fill="#89D2EF"
     d="M875.092 244.526C876.967 247.99 876.697 254.225 877.036 258.222L877.032 264.542C877.094 266.502 876.932 267.205 875.97 268.885C875.195 270.239 875.065 271.968 874.78 273.484C874.154 276.818 873.643 280.32 872.607 283.549C867.065 300.817 855.6 314.712 839.945 323.771C837.565 325.149 834.87 327.045 832.25 327.918C831.495 328.169 830.755 328.145 829.973 328.139L830.048 307.388L838.662 302.303C859.488 288.712 870.183 268.302 875.092 244.526Z"
     id="path13" />
  <path
     fill="#89D2EF"
     d="M142.06 241.433C145.542 264.855 155.88 286.006 175.187 300.42L187.383 308.293L187.359 388.506L187.358 411.661C187.355 415.684 187.699 420.13 187.054 424.087C186.261 416.793 186.901 408.743 186.901 401.351L186.911 353.564L186.811 329.576C179.562 325.997 172.322 321.981 166.078 316.789C153.174 306.058 143.057 287.709 141.339 271.002L140.875 271.252L139.959 270.072C140.063 265.396 139.608 260.416 140.156 255.791C140.723 250.999 142.155 246.242 142.06 241.433Z"
     id="path14" />
  <path
     fill="#89D2EF"
     d="M279.037 531.639L280.255 532.25L280.255 533.75L280.797 534.25L281.38 548.013L281.488 554.122C278.887 557.466 278.295 562.438 276.536 566.306C269.751 581.226 257.129 595.293 242.111 602.25L228.68 607.528L228.597 620.678C228.597 623.271 228.922 626.315 228.12 628.785L228.389 587.434L240.172 581.871C259.782 571.01 272.852 552.933 279.037 531.639Z"
     id="path15" />
  <path
     fill="#89D2EF"
     d="M737.536 528.439L737.929 529.099C739.528 531.928 739.922 536.277 741.133 539.459C745.861 551.886 753.405 562.368 763.151 571.345C768.932 576.67 775.631 581.033 782.75 584.348C783.688 584.785 789.377 587.095 789.535 587.393C789.805 587.903 789.531 591.174 789.53 591.911L789.511 608.044C783.67 606.978 776.115 602.748 770.887 599.795C757.846 592.431 747.279 579.35 740.889 566.036C739.781 563.727 738.389 561.343 737.744 558.859C737.58 558.231 737.515 557.853 737.128 557.32C735.209 554.678 736.761 551.549 735.735 548.697L735.497 548.079C736.969 541.797 734.733 534.486 737.536 528.439Z"
     id="path16" />
  <path
     fill="#89D2EF"
     d="M528.621 321.783L528.707 281.413C537.555 279.631 546.183 276.348 554.032 271.881C572.529 261.35 585.304 242.843 590.862 222.576L671.143 222.661L693.269 222.616C697.427 222.604 701.93 222.235 706.035 222.925L705.51 222.969C695.254 223.736 684.517 223.135 674.211 223.134L614.821 223.116L599.281 223.118C597.734 223.119 595.226 222.78 593.901 223.461C594.097 228.921 595.228 236.074 593.4 241.229C591.819 245.685 591.056 250.374 589.25 254.837C581.824 273.188 566.103 286.716 548.59 295.035C542.655 297.854 535.589 299.685 529.125 300.716L529.092 314.363C529.08 316.768 529.348 319.483 528.621 321.783Z"
     id="path17" />
  <path
     fill="#89D2EF"
     d="M311.01 223.055C314.218 221.671 415.124 222.615 425.62 222.59C432.455 244.563 446.212 263.174 466.84 274.071C473.751 277.722 481.253 279.907 488.698 282.174L488.88 306.786C488.308 305.236 488.41 303.396 488.355 301.75C487.414 300.592 472.12 296.776 469 295.53C462.462 292.918 456.594 289.282 451 285.048C446.697 281.791 442.332 277.505 438.901 273.334C432.352 265.372 427.149 257.307 424.123 247.383C423.487 245.296 422.606 243.186 422.359 241.005C421.696 235.169 421.834 228.99 421.633 223.108L311.01 223.055Z"
     id="path18" />
  <path
     fill="#89D2EF"
     d="M528.628 678.778L528.677 644.47C552.627 640.528 572.085 632.517 591.199 617.504L602.152 628.086C597.619 633.862 592.241 638.602 586.523 643.149C570.629 655.785 552.753 663.52 532.5 665.957L529.124 666.216C529.094 669.964 529.723 675.251 528.628 678.778Z"
     id="path19" />
  <path
     fill="#89D2EF"
     d="M415.114 628.099L425.723 617.655C444.042 631.75 465.379 642.206 488.627 644.632L488.883 694.279C488.01 691.357 488.448 687.642 488.447 684.601L488.37 666.839C486.398 666.234 484.101 666.204 482.051 665.89C459.601 662.449 440.04 653.638 423.827 637.58C420.765 634.547 417.676 631.578 415.114 628.099Z"
     id="path20" />
  <path
     fill="#439EE1"
     d="M776.633 500.425L776.944 500.842C779.298 504.058 780.476 508.092 782.263 511.649C788.02 523.107 799.144 530.977 811.831 532.857C816.864 533.603 822.561 533.388 827.5 532.156C836.215 529.981 844.655 525.121 849.532 517.338C852.543 512.532 854.466 506.784 857.982 502.413L859 502.43C859.87 502.324 859.78 502.209 860.301 501.592C861.987 510.027 860.575 519.958 856.567 527.547C851.066 537.962 841.872 546.087 830.508 549.451C819.385 552.744 807.202 551.469 797.088 545.8C787.039 540.168 780.541 531.045 777.314 520.158C775.512 514.079 775.654 506.623 776.633 500.425Z"
     id="path21" />
  <path
     fill="#439EE1"
     d="M269.418 769.047C271.342 781.058 269.603 792.18 262.403 802.176C255.625 811.588 245.547 818.198 233.991 819.968L233.25 820.077L232.534 820.201C227.85 820.955 222.537 820.716 217.913 819.698L216.939 819.492C205.869 817.075 196.086 810.62 189.966 801C184.285 792.071 181.82 780.03 184.12 769.598L184.448 768.332C186.459 771.897 187.85 775.881 189.72 779.547C193.294 786.553 198.514 792.458 205.15 796.75C213.489 802.145 226.599 803.719 236.099 801.257L237 801.009L238.797 800.527C248.086 797.824 256.656 791.457 261.283 782.882C263.323 779.102 264.627 775.036 266.75 771.27L268.5 770.974C268.951 770.317 269.203 769.815 269.418 769.047Z"
     id="path22" />
  <path
     fill="#439EE1"
     d="M748.453 222.263L748.802 222.889C750.826 226.59 751.695 230.629 753.419 234.457C757.802 244.191 767.405 252.773 777.657 255.792C788.896 259.101 800.95 258.315 811.245 252.506L814.18 250.684L814.886 250.247C822.914 245.14 825.276 237.133 830 229.52C831.047 227.831 833.141 226.215 833.864 224.55C835.071 231.284 834.69 238.638 832.921 245.25C830.209 255.383 822.234 264.673 813.239 269.838C802.868 275.793 790.073 277.226 778.555 274.103C767.454 271.093 757.865 263.602 752.288 253.502C747.302 244.474 745.591 232.194 748.453 222.263Z"
     id="path23" />
  <path
     fill="#439EE1"
     d="M748.19 767.963L748.738 768.825C750.856 772.234 751.69 776.357 753.464 779.967C758.124 789.453 768.676 798.148 778.887 800.729C790.194 803.587 801.646 802.426 811.685 796.46L813.689 795.192L814.374 794.758C818.786 791.899 822.422 787.528 825.029 783C827.355 778.962 829.58 772.187 833.584 769.752C834.688 774.717 834.414 780.978 833.575 785.983C831.721 797.052 824.487 806.748 815.423 813.097C805.803 819.834 793.66 821.887 782.175 819.853C770.839 817.846 760.597 811.058 754.16 801.548C747.255 791.349 745.872 779.85 748.19 767.963Z"
     id="path24" />
  <path
     fill="#FE3A34"
     d="M551.344 187.312C554.141 201.018 553.35 212.891 545.404 224.783C539.168 234.115 528.611 240.638 517.635 242.69C506.2 244.829 492.924 243.073 483.195 236.392C474.136 230.17 466.751 220.664 464.853 209.617C463.652 202.624 463.902 195.986 465.262 189.039C467.655 192.16 468.407 195.369 469.707 198.988C472.702 207.328 479.013 214.187 486.224 219.207C495.292 225.522 506.528 226.323 517.137 224.365C529.674 222.052 539.891 212.196 545.41 201.104C546.968 197.974 547.992 193.486 550.003 190.742C550.994 189.389 551.138 188.946 551.344 187.312Z"
     id="path25"
     style="fill:#c061cb" />
  <path
     fill="#FE3A34"
     d="M551.441 798.074C553.813 810.744 553.029 823.111 545.613 834.019C539.504 843.004 528.948 850.202 518.203 852.169C506.382 854.333 492.821 853.001 482.75 845.932C473.119 839.171 466.295 829.188 464.414 817.476C463.396 811.137 464.18 805.025 465.132 798.762C468.699 801.761 469.425 808.783 471.707 813.032C474.26 817.787 478.386 822.45 482.377 826.043C489.162 832.149 500.257 835.455 509.283 834.915C525.288 833.956 537.487 825.927 544.584 811.455C546.367 807.819 547.187 803.495 549.932 800.44C550.636 799.657 551.042 799.073 551.441 798.074Z"
     id="path26"
     style="fill:#c061cb" />
  <path
     fill="#C9F0FA"
     d="M279.037 531.639L279.632 528.548C281.873 527.289 361.205 528.106 369.564 528.124C373.088 551.474 381.357 570.962 394.808 590.264L380 605.667L378.751 604.733C375.753 602.226 373.536 597.53 371.895 594.013C365.203 579.672 361.498 563.63 359.819 547.933L281.38 548.013L280.797 534.25L280.255 533.75L280.255 532.25L279.037 531.639Z"
     id="path27" />
  <path
     fill="#C9F0FA"
     d="M637.079 605.633C636.193 605.195 634.737 603.33 633.988 602.581C630.332 598.923 626.262 595.213 623.143 591.095C623.137 591.087 622.322 589.991 622.321 589.957C622.302 589.46 625.789 584.85 626.271 584.144C637.787 567.263 644.187 548.185 647.169 528.094L710 528.074L727.687 528.024C730.834 528.016 734.503 527.633 737.536 528.439C734.733 534.486 736.969 541.797 735.497 548.079L678.772 547.913L663.44 547.937C661.29 547.941 658.484 547.572 656.496 548.246C654.995 565.281 651.81 582.175 643.536 597.345C642.371 599.481 640.931 602.513 639.25 604.257C638.839 604.684 638.732 604.568 638.259 604.838L637.079 605.633Z"
     id="path28" />
  <path
     fill="#C9F0FA"
     d="M311.01 223.055L421.633 223.108C421.834 228.99 421.696 235.169 422.359 241.005C422.606 243.186 423.487 245.296 424.123 247.383C427.149 257.307 432.352 265.372 438.901 273.334C442.332 277.505 446.697 281.791 451 285.048C456.594 289.282 462.462 292.918 469 295.53C472.12 296.776 487.414 300.592 488.355 301.75C488.41 303.396 488.308 305.236 488.88 306.786L489.006 326.84C488.885 326.436 488.464 324.507 488.25 324.314C487.995 324.083 486.283 323.793 485.903 323.712L478.165 321.97C463.861 318.208 451.115 310.804 440.446 300.562C432.668 293.095 425.874 280.849 423.55 270.35C421.586 261.472 421.513 252.289 421.418 243.245L310.545 242.841C310.768 239.394 310.996 235.948 310.936 232.492C310.882 229.412 310.509 226.091 311.01 223.055Z"
     id="path29" />
  <path
     fill="#C9F0FA"
     d="M706.035 222.925C706.911 225.141 706.483 228.317 706.457 230.708C706.413 234.847 706.453 238.995 706.927 243.112L616.036 242.979C613.542 242.973 596.292 242.176 595.112 242.881C595.116 249.006 595.448 255.444 594.855 261.53C593.718 273.199 589.076 283.26 582.631 292.879C574.31 305.296 557.363 316.045 543.237 320.329C538.983 321.62 532.23 322.353 528.542 324.549L528.621 321.783C529.348 319.483 529.08 316.768 529.092 314.363L529.125 300.716C535.589 299.685 542.655 297.854 548.59 295.035C566.103 286.716 581.824 273.188 589.25 254.837C591.056 250.374 591.819 245.685 593.4 241.229C595.228 236.074 594.097 228.921 593.901 223.461C595.226 222.78 597.734 223.119 599.281 223.118L614.821 223.116L674.211 223.134C684.517 223.135 695.254 223.736 705.51 222.969L706.035 222.925Z"
     id="path30" />
  <path
     fill="#C9F0FA"
     d="M736.84 315.056C742.598 320.185 748.777 325.205 755.734 328.642C765.945 333.686 778.191 335.867 789.502 336.613L789.461 363.536C789.329 362.747 789.172 360.138 788.563 359.762C786.773 358.653 781.453 358.703 779.104 358.311C771.119 356.98 762.544 354.824 755.322 351.081C749.476 348.052 743.876 343.614 738.868 339.367C731.929 346.924 724.209 353.778 716.857 360.933L673.261 402.831L642.348 432.848C640.042 435.133 638.008 437.694 635.639 439.917C634.844 440.663 634.148 441.054 633.155 441.47L623.622 425.045C624.157 423.854 626.016 422.651 627.002 421.778L636.25 413.315L736.84 315.056Z"
     id="path31" />
  <path
     fill="#C9F0FA"
     d="M280.247 314.69L360.854 392.87L385.2 416.433C387.64 418.814 392.143 422.158 393.744 425.068L383.9 440.917C379.637 438.71 375.571 433.437 372.183 430.027L356.616 414.748L311.72 371.759L278.135 340.023C263.868 353.59 247.157 357.91 227.985 359.602L228.118 359.12C229.241 351.953 228.518 343.835 228.489 336.557C242.076 336.668 257.411 331.895 268.75 324.42C272.929 321.666 276.639 318.127 280.247 314.69Z"
     id="path32" />
  <path
     fill="#89D2EF"
     d="M776.633 500.425C779.306 488.815 784.833 478.512 795.23 472.111C800.529 468.849 806.351 466.777 812.5 465.897L813.35 465.77C823.625 464.349 835.645 467.679 843.876 473.963C853.25 481.12 858.328 490.023 860.301 501.592C859.78 502.209 859.87 502.324 859 502.43L857.982 502.413C854.466 506.784 852.543 512.532 849.532 517.338C844.655 525.121 836.215 529.981 827.5 532.156C822.561 533.388 816.864 533.603 811.831 532.857C799.144 530.977 788.02 523.107 782.263 511.649C780.476 508.092 779.298 504.058 776.944 500.842L776.633 500.425Z"
     id="path33" />
  <path
     fill="#FEFEFE"
     d="M809.605 473.645L810.224 473.582C813.563 473.337 816.734 474.438 819.125 476.766C820.905 478.5 821.457 479.65 821.471 482.189C821.508 488.882 814.632 487.836 809.912 488.48C809.338 488.558 807.914 488.617 807.453 488.893C805.927 489.804 803.729 492.602 802.405 493.921C801.615 494.473 800.709 495.028 799.758 495.25C798.452 495.554 796.609 495.309 795.5 494.561C793.757 493.384 792.426 491.703 792.043 489.611C791.563 486.988 791.753 484.165 793.416 482C797.462 476.733 803.215 474.597 809.605 473.645Z"
     id="path34" />
  <path
     fill="#439ee1"
     d="m 158.37673,498.77199 0.311,0.417 c 2.354,3.216 3.532,7.25 5.319,10.807 5.757,11.458 16.881,19.328 29.568,21.208 5.033,0.746 10.73,0.531 15.669,-0.701 8.715,-2.175 17.155,-7.035 22.032,-14.818 3.011,-4.806 4.934,-10.554 8.45,-14.925 l 1.018,0.017 c 0.87,-0.106 0.78,-0.221 1.301,-0.838 1.686,8.435 0.274,18.366 -3.734,25.955 -5.501,10.415 -14.695,18.54 -26.059,21.904 -11.123,3.293 -23.306,2.018 -33.42,-3.651 -10.049,-5.632 -16.547,-14.755 -19.774,-25.642 -1.802,-6.079 -1.66,-13.535 -0.681,-19.733 z"
     id="path21-8" />
  <path
     fill="#89d2ef"
     d="m 158.37673,498.77199 c 2.673,-11.61 8.2,-21.913 18.597,-28.314 5.299,-3.262 11.121,-5.334 17.27,-6.214 l 0.85,-0.127 c 10.275,-1.421 22.295,1.909 30.526,8.193 9.374,7.157 14.452,16.06 16.425,27.629 -0.521,0.617 -0.431,0.732 -1.301,0.838 l -1.018,-0.017 c -3.516,4.371 -5.439,10.119 -8.45,14.925 -4.877,7.783 -13.317,12.643 -22.032,14.818 -4.939,1.232 -10.636,1.447 -15.669,0.701 -12.687,-1.88 -23.811,-9.75 -29.568,-21.208 -1.787,-3.557 -2.965,-7.591 -5.319,-10.807 z"
     id="path33-2" />
  <path
     fill="#fefefe"
     d="m 191.34873,471.99199 0.619,-0.063 c 3.339,-0.245 6.51,0.856 8.901,3.184 1.78,1.734 2.332,2.884 2.346,5.423 0.037,6.693 -6.839,5.647 -11.559,6.291 -0.574,0.078 -1.998,0.137 -2.459,0.413 -1.526,0.911 -3.724,3.709 -5.048,5.028 -0.79,0.552 -1.696,1.107 -2.647,1.329 -1.306,0.304 -3.149,0.059 -4.258,-0.689 -1.743,-1.177 -3.074,-2.858 -3.457,-4.95 -0.48,-2.623 -0.29,-5.446 1.373,-7.611 4.046,-5.267 9.799,-7.403 16.189,-8.355 z"
     id="path34-2" />
  <path
     fill="#89D2EF"
     d="M748.19 767.963C751.955 755.79 758.307 744.613 770.057 738.514C781.087 732.789 793.672 732.388 805.366 736.279C815.643 739.697 824.921 748.237 829.692 757.899C831.59 761.744 832.672 765.578 833.584 769.752C829.58 772.187 827.355 778.962 825.029 783C822.422 787.528 818.786 791.899 814.374 794.758L813.689 795.192L811.685 796.46C801.646 802.426 790.194 803.587 778.887 800.729C768.676 798.148 758.124 789.453 753.464 779.967C751.69 776.357 750.856 772.234 748.738 768.825L748.19 767.963Z"
     id="path35" />
  <path
     fill="#FEFEFE"
     d="M781.554 742.668C783.019 742.673 784.56 742.778 786 743.056C788.178 743.477 789.964 744.782 791.084 746.682C792.222 748.612 792.528 751.011 791.901 753.169C790.733 757.186 786.931 755.475 784.5 757.249C782.219 758.914 781.089 761.184 778.375 762.781C776.243 763.14 773.228 763.404 771.343 762.25C769.181 760.927 767.701 758.886 767.206 756.397C766.691 753.805 767.579 750.988 769.093 748.861C772.091 744.651 776.704 743.353 781.554 742.668Z"
     id="path36" />
  <path
     fill="#89D2EF"
     d="M184.448 768.332C185.397 763.59 186.978 758.891 189.462 754.718C195.507 744.563 204.438 737.783 215.894 734.949C227.267 732.135 239.517 734.131 249.502 740.199C260.594 746.941 266.401 756.615 269.418 769.047C269.203 769.815 268.951 770.317 268.5 770.974L266.75 771.27C264.627 775.036 263.323 779.102 261.283 782.882C256.656 791.457 248.086 797.824 238.797 800.527L237 801.009L236.099 801.257C226.599 803.719 213.489 802.145 205.15 796.75C198.514 792.458 193.294 786.553 189.72 779.547C187.85 775.881 186.459 771.897 184.448 768.332Z"
     id="path37" />
  <path
     fill="#FEFEFE"
     d="M219.493 742.684C221.883 742.578 225.416 742.509 227.421 743.898C229.404 745.273 231.005 747.566 231.412 749.966C231.648 751.36 231.25 753.589 230.25 754.625C228.757 756.173 225.932 756.53 223.907 756.776L223.44 756.829C221.219 759.066 219.328 761.376 216.306 762.518C213.646 763.076 210.226 763.501 207.854 761.913C205.953 760.64 204.492 758.519 204.098 756.25C203.62 753.497 204.081 751.314 205.781 749.114C209.341 744.505 214.016 743.288 219.493 742.684Z"
     id="path38" />
  <path
     fill="#89D2EF"
     d="M748.453 222.263C751.26 211.186 757.633 200.726 767.588 194.704C772.777 191.565 778.267 189.76 784.25 188.929L785.167 188.793C796.201 187.247 807.926 190.516 816.737 197.262C826.088 204.422 831.422 213.062 833.864 224.55C833.141 226.215 831.047 227.831 830 229.52C825.276 237.133 822.914 245.14 814.886 250.247L814.18 250.684L811.245 252.506C800.95 258.315 788.896 259.101 777.657 255.792C767.405 252.773 757.802 244.191 753.419 234.457C751.695 230.629 750.826 226.59 748.802 222.889L748.453 222.263Z"
     id="path39" />
  <path
     fill="#FEFEFE"
     d="M778.902 198.043C780.783 197.928 783.14 197.713 784.982 198.17C787.23 198.727 789.127 200.073 790.233 202.12C791.274 204.048 791.495 207.166 790.697 209.201C790.237 210.374 787.558 211.853 786.538 212.72C783.882 214.979 782.641 217.517 779.395 219.202C777.447 219.466 774.834 219.913 773 219.113C770.495 218.021 768.626 215.813 767.75 213.259C766.775 210.413 767.42 207.571 768.75 204.955C770.766 200.988 774.916 199.286 778.902 198.043Z"
     id="path40" />
  <path
     fill="#FE8F29"
     d="M465.132 798.762C468.075 789.113 472.497 780.265 480.78 774.12C491.235 766.364 503.306 764.092 516 765.911C520.476 766.552 525.098 768.013 529.095 770.156C540.642 776.346 547.696 785.607 551.441 798.074C551.042 799.073 550.636 799.657 549.932 800.44C547.187 803.495 546.367 807.819 544.584 811.455C537.487 825.927 525.288 833.956 509.283 834.915C500.257 835.455 489.162 832.149 482.377 826.043C478.386 822.45 474.26 817.787 471.707 813.032C469.425 808.783 468.699 801.761 465.132 798.762Z"
     id="path41"
     style="fill:#dc8add" />
  <path
     fill="#FEFEFE"
     d="M499.27 774.15L500.5 774.074C504.445 774.188 507.192 775.247 509.692 778.374C510.953 779.952 510.775 781.531 510.498 783.428C509.59 789.644 502.949 788.302 498.911 790.161C496.617 791.217 494.202 793.754 492.141 795.363L490.87 795.821C489.143 796.269 487.237 796.112 485.725 795.187C483.698 793.948 481.278 791.296 480.888 788.864C480.536 786.666 481.359 784.554 482.597 782.773C486.535 777.11 492.829 775.213 499.27 774.15Z"
     id="path42" />
  <path
     fill="#FE3A34"
     d="m 267.58539,217.44637 c 2.372,12.67 1.588,25.037 -5.828,35.945 -6.109,8.985 -16.665,16.183 -27.41,18.15 -11.821,2.164 -25.382,0.832 -35.453,-6.237 -9.631,-6.761 -16.455,-16.744 -18.336,-28.456 -1.018,-6.339 -0.234,-12.451 0.718,-18.714 3.567,2.999 4.293,10.021 6.575,14.27 2.553,4.755 6.679,9.418 10.67,13.011 6.785,6.106 17.88,9.412 26.906,8.872 16.005,-0.959 28.204,-8.988 35.301,-23.46 1.783,-3.636 2.603,-7.96 5.348,-11.015 0.704,-0.783 1.11,-1.367 1.509,-2.366 z"
     id="path26-5"
     style="fill:#c061cb" />
  <path
     fill="#FE8F29"
     d="m 181.27639,218.13437 c 2.943,-9.649 7.365,-18.497 15.648,-24.642 10.455,-7.756 22.526,-10.028 35.22,-8.209 4.476,0.641 9.098,2.102 13.095,4.245 11.547,6.19 18.601,15.451 22.346,27.918 -0.399,0.999 -0.805,1.583 -1.509,2.366 -2.745,3.055 -3.565,7.379 -5.348,11.015 -7.097,14.472 -19.296,22.501 -35.301,23.46 -9.026,0.54 -20.121,-2.766 -26.906,-8.872 -3.991,-3.593 -8.117,-8.256 -10.67,-13.011 -2.282,-4.249 -3.008,-11.271 -6.575,-14.27 z"
     id="path41-6"
     style="fill:#dc8add" />
  <path
     fill="#fefefe"
     d="m 215.41439,193.52237 1.23,-0.076 c 3.945,0.114 6.692,1.173 9.192,4.3 1.261,1.578 1.083,3.157 0.806,5.054 -0.908,6.216 -7.549,4.874 -11.587,6.733 -2.294,1.056 -4.709,3.593 -6.77,5.202 l -1.271,0.458 c -1.727,0.448 -3.633,0.291 -5.145,-0.634 -2.027,-1.239 -4.447,-3.891 -4.837,-6.323 -0.352,-2.198 0.471,-4.31 1.709,-6.091 3.938,-5.663 10.232,-7.56 16.673,-8.623 z"
     id="path42-9" />
  <path
     fill="#FE8F29"
     d="M465.262 189.039C466.931 183.715 468.706 178.399 471.908 173.758C477.739 165.308 487.86 158.404 498.02 156.512C503.506 155.49 509.636 154.872 515.188 155.799L516 155.945C520.162 156.638 524.427 157.774 528.25 159.618C539.775 165.178 547.393 175.429 551.344 187.312C551.138 188.946 550.994 189.389 550.003 190.742C547.992 193.486 546.968 197.974 545.41 201.104C539.891 212.196 529.674 222.052 517.137 224.365C506.528 226.323 495.292 225.522 486.224 219.207C479.013 214.187 472.702 207.328 469.707 198.988C468.407 195.369 467.655 192.16 465.262 189.039Z"
     id="path43"
     style="fill:#dc8add" />
  <path
     fill="#FEFEFE"
     d="M498.262 164.099L498.983 164.041C502.797 163.762 506.118 163.976 509.091 166.713C510.502 168.012 511.506 169.49 511.468 171.5C511.406 174.792 508.383 178.343 505.111 178.854C503.381 179.123 500.204 178.924 498.704 179.827C496.763 180.997 494.501 183.75 492.825 185.375C491.913 185.906 491.029 186.357 490 186.611C488.17 187.063 486.568 186.697 484.981 185.716C483.323 184.691 480.857 182.243 480.502 180.25C479.98 177.317 480.807 174.794 482.418 172.385C485.955 167.096 492.331 165.258 498.262 164.099Z"
     id="path44" />
  <path
     fill="#C9F0FA"
     d="M415.114 628.099C417.676 631.578 420.765 634.547 423.827 637.58C440.04 653.638 459.601 662.449 482.051 665.89C484.101 666.204 486.398 666.234 488.37 666.839L488.447 684.601C488.448 687.642 488.01 691.357 488.883 694.279L488.911 699.785C488.684 698.466 488.503 697.143 488.075 695.871C481.259 694.225 474.302 693.102 467.555 691.185C445.594 684.947 429.698 672.249 414.292 655.937L341.848 725.938L314.792 752.371C312.718 754.389 311.28 756.977 308.668 758.364L302.049 738.859L415.114 628.099Z"
     id="path45" />
  <path
     fill="#C9F0FA"
     d="M528.628 678.778C529.723 675.251 529.094 669.964 529.124 666.216L532.5 665.957C552.753 663.52 570.629 655.785 586.523 643.149C592.241 638.602 597.619 633.862 602.152 628.086L715.916 738.73C713.077 744.914 710.099 751.636 708.72 758.332C706.404 757.128 704.596 754.211 702.758 752.324L690.943 740.783L640.457 692.564L615.622 668.851C611.317 664.833 607.2 660.665 602.627 656.943C595.938 663.611 589.492 670.211 581.883 675.866C567.172 686.8 548.1 693.366 529.998 695.659L529.245 695.75L528.569 697.709L528.628 678.778Z"
     id="path46" />
  <path
     fill="#FE3A34"
     d="M605.265 478.411C610.25 495.966 610.49 516.066 605.618 533.644C598.685 558.658 581.236 580.741 558.57 593.406C534.476 606.868 505.278 609.599 478.814 602.106C454.251 595.15 432.879 578.239 420.42 555.964C406.81 531.629 404.687 502.97 412.206 476.374L412.448 476.76C414.358 479.885 414.452 483.578 415.085 487.116C415.822 491.232 416.789 495.402 418.25 499.328C426.256 520.843 442.202 543.25 461.829 555.56C469.366 560.288 478.331 563.634 486.935 565.782C509.31 571.367 534.029 567.248 553.656 555.354C558.849 552.207 563.04 548.419 567.473 544.305C582.463 530.39 594.734 511.823 599.6 491.785C600.556 487.845 600.859 483.546 602.773 479.956L603.336 478.75L604.075 478.696C604.985 478.617 604.647 478.729 605.265 478.411Z"
     id="path49"
     style="fill:#c061cb" />
  <path
     fill="#FEFEFE"
     d="M154.586 188.307C150.836 187.808 148.204 189.834 145.285 191.976L144.694 192.417C146.493 176.36 154.112 161.699 165.497 150.288C178.371 137.386 194.176 129.098 211.988 125.384C222.423 123.207 233.544 123.62 244.163 123.6L289.058 123.833L453.09 123.425L464.747 123.457C465.308 123.473 467.073 123.376 467.5 123.61C467.957 123.86 468.238 124.344 468.607 124.711C449.11 135.461 433.533 152.072 427.068 173.75L424.445 183.983L295.861 183.992C290.702 177.629 285.391 171.322 279.098 166.029C267.639 156.391 252.287 149.938 237.413 148.397C215.382 146.114 192.139 151.602 174.796 165.757C167.342 171.841 159.325 179.836 154.586 188.307Z"
     id="path50" />
  <path
     fill="#FEFEFE"
     d="M114.478 504.894L112.466 503.505C111.741 501.588 111.906 498.946 111.822 496.89L111.892 477.237L111.953 454.443L111.943 354.865L111.941 289.504L112.02 254.905C112.179 250.538 112.874 245.977 113.972 241.75C118.859 222.929 130.279 204.432 147.75 194.904C149.036 194.203 149.429 194.14 150.843 194.5C143.51 210.271 141.234 224.069 142.06 241.433C142.155 246.242 140.723 250.999 140.156 255.791C139.608 260.416 140.063 265.396 139.959 270.072L140.875 271.252L141.339 271.002C143.057 287.709 153.174 306.058 166.078 316.789C172.322 321.981 179.562 325.997 186.811 329.576L186.911 353.564L186.901 401.351C186.901 408.743 186.261 416.793 187.054 424.087L186.861 426.412C184.831 427.34 182.261 427.283 180.065 427.724C176.433 428.452 172.813 429.41 169.319 430.644C147.556 438.331 128.532 456.592 120.403 478.263C117.12 487.014 115.241 495.572 114.478 504.894Z"
     id="path51" />
  <path
     fill="#C9F0FA"
     d="M139.959 270.072L140.875 271.252L141.339 271.002C143.057 287.709 153.174 306.058 166.078 316.789C172.322 321.981 179.562 325.997 186.811 329.576L186.911 353.564C181.483 352.39 176.783 349.463 172.199 346.463C165.847 342.307 159.517 337.681 154.882 331.588C144.53 317.984 140.856 304.987 139.787 288.1C139.413 282.183 139.181 275.956 139.959 270.072Z"
     id="path52" />
  <path
     fill="#FEFEFE"
     d="M528.569 697.709L529.245 695.75L529.998 695.659C548.1 693.366 567.172 686.8 581.883 675.866C589.492 670.211 595.938 663.611 602.627 656.943C607.2 660.665 611.317 664.833 615.622 668.851L640.457 692.564L690.943 740.783L702.758 752.324C704.596 754.211 706.404 757.128 708.72 758.332C706.567 766.622 706.073 774.418 705.931 782.941L590.543 783.022L585.021 771.118C576.196 754.733 562.758 741.624 545.867 733.75C540.448 731.224 534.639 729.569 528.931 727.841C528.261 724.859 528.656 721.179 528.642 718.118L528.569 697.709Z"
     id="path53" />
  <path
     fill="#FEFEFE"
     d="M308.668 758.364C311.28 756.977 312.718 754.389 314.792 752.371L341.848 725.938L414.292 655.937C429.698 672.249 445.594 684.947 467.555 691.185C474.302 693.102 481.259 694.225 488.075 695.871C488.503 697.143 488.684 698.466 488.911 699.785L488.882 727.952C483.882 729.287 478.729 730.611 473.945 732.603C456.601 739.825 442.413 752.317 433.014 768.632L426.547 782.938L311.752 782.949C311.441 774.523 310.796 766.559 308.668 758.364Z"
     id="path54" />
  <path
     fill="#FEFEFE"
     d="M865.158 192.124C879.965 197.971 892.735 213.805 898.951 228.045C902.928 237.153 904.845 246.16 905.526 256.062C906.133 264.893 905.901 273.87 905.918 282.719L905.869 330.565L905.931 448.077L905.864 486.938C905.833 491.453 906.582 499.027 905.13 503.25C904.104 503.613 904.28 503.764 903.201 503.307L902.6 503.056C901.516 488.004 896.47 473.791 887.78 461.438C878.53 448.287 866.012 437.618 850.938 431.75C844.042 429.065 837.182 427.632 829.93 426.334L829.911 352.765L829.973 328.139C830.755 328.145 831.495 328.169 832.25 327.918C834.87 327.045 837.565 325.149 839.945 323.771C855.6 314.712 867.065 300.817 872.607 283.549C873.643 280.32 874.154 276.818 874.78 273.484C875.065 271.968 875.195 270.239 875.97 268.885C876.932 267.205 877.094 266.502 877.032 264.542L877.036 258.222C876.697 254.225 876.967 247.99 875.092 244.526C876.497 232.351 875.317 218.98 871.518 207.321C869.825 202.126 867.404 197.097 865.158 192.124Z"
     id="path55" />
  <path
     fill="#C9F0FA"
     d="M877.036 258.222C877.949 262.277 877.597 266.638 877.75 270.779C878.474 290.367 877.451 309.006 866.629 325.993C860.08 336.273 849.232 344.736 838.269 349.896C836.228 350.856 833.974 352.117 831.749 352.551L829.911 352.765L829.973 328.139C830.755 328.145 831.495 328.169 832.25 327.918C834.87 327.045 837.565 325.149 839.945 323.771C855.6 314.712 867.065 300.817 872.607 283.549C873.643 280.32 874.154 276.818 874.78 273.484C875.065 271.968 875.195 270.239 875.97 268.885C876.932 267.205 877.094 266.502 877.032 264.542L877.036 258.222Z"
     id="path56" />
  <path
     fill="#FEFEFE"
     d="M227.985 359.602C247.157 357.91 263.868 353.59 278.135 340.023L311.72 371.759L356.616 414.748L372.183 430.027C375.571 433.437 379.637 438.71 383.9 440.917C376.5 456.529 371.78 471.293 369.079 488.397C366.738 489.053 363.391 488.664 360.939 488.669L342.636 488.655L279.966 488.913L275.015 474.5C265.592 453.654 249.353 438.604 228.032 430.481L227.985 359.602Z"
     id="path57" />
  <path
     fill="#FEFEFE"
     d="M633.155 441.47C634.148 441.054 634.844 440.663 635.639 439.917C638.008 437.694 640.042 435.133 642.348 432.848L673.261 402.831L716.857 360.933C724.209 353.778 731.929 346.924 738.868 339.367C743.876 343.614 749.476 348.052 755.322 351.081C762.544 354.824 771.119 356.98 779.104 358.311C781.453 358.703 786.773 358.653 788.563 359.762C789.172 360.138 789.329 362.747 789.461 363.536L789.515 414.117L789.482 425.629C789.476 427.349 789.685 429.343 789.252 431.014C769.625 437.762 753.312 452.57 744.172 471.155C741.442 476.705 739.282 482.381 737.7 488.357C734.963 488.889 731.738 488.581 728.925 488.584L712.307 488.606L648.054 488.881C645.227 471.907 640.499 457.016 633.155 441.47Z"
     id="path58" />
  <path
     fill="#FEFEFE"
     d="M281.38 548.013L359.819 547.933C361.498 563.63 365.203 579.672 371.895 594.013C373.536 597.53 375.753 602.226 378.751 604.733L380 605.667L292.406 691.563L279.669 704.146C278.076 705.659 276.265 707.73 274.26 708.668C259.507 700.001 245.586 694.59 228.239 694.454L228.02 630.999L228.12 628.785C228.922 626.315 228.597 623.271 228.597 620.678L228.68 607.528L242.111 602.25C257.129 595.293 269.751 581.226 276.536 566.306C278.295 562.438 278.887 557.466 281.488 554.122L281.38 548.013Z"
     id="path59" />
  <path
     fill="#C9F0FA"
     d="M281.488 554.122C282.628 574.013 280.026 592.691 266.09 608.062C256.608 618.522 243.064 627.297 229.22 630.546C228.522 630.709 228.818 630.627 228.02 630.999L228.12 628.785C228.922 626.315 228.597 623.271 228.597 620.678L228.68 607.528L242.111 602.25C257.129 595.293 269.751 581.226 276.536 566.306C278.295 562.438 278.887 557.466 281.488 554.122Z"
     id="path60" />
  <path
     fill="#FEFEFE"
     d="M637.079 605.633L638.259 604.838C638.732 604.568 638.839 604.684 639.25 604.257C640.931 602.513 642.371 599.481 643.536 597.345C651.81 582.175 654.995 565.281 656.496 548.246C658.484 547.572 661.29 547.941 663.44 547.937L678.772 547.913L735.497 548.079L735.735 548.697C736.761 551.549 735.209 554.678 737.128 557.32C737.515 557.853 737.58 558.231 737.744 558.859C738.389 561.343 739.781 563.727 740.889 566.036C747.279 579.35 757.846 592.431 770.887 599.795C776.115 602.748 783.67 606.978 789.511 608.044L789.528 631.395L789.483 694.504C784.896 694.756 780.19 694.859 775.656 695.618C763.694 697.62 753.767 702.385 743.534 708.693L637.079 605.633Z"
     id="path61" />
  <path
     fill="#C9F0FA"
     d="M735.497 548.079L735.735 548.697C736.761 551.549 735.209 554.678 737.128 557.32C737.515 557.853 737.58 558.231 737.744 558.859C738.389 561.343 739.781 563.727 740.889 566.036C747.279 579.35 757.846 592.431 770.887 599.795C776.115 602.748 783.67 606.978 789.511 608.044L789.528 631.395C777.594 628.759 764.629 621.057 755.886 612.611C744.146 601.27 737.143 586.424 735.799 570.154C735.194 562.827 735.628 555.426 735.497 548.079Z"
     id="path62" />
  <path
     fill="#FEFEFE"
     d="M310.545 242.841L421.418 243.245C421.513 252.289 421.586 261.472 423.55 270.35C425.874 280.849 432.668 293.095 440.446 300.562C451.115 310.804 463.861 318.208 478.165 321.97L485.903 323.712C486.283 323.793 487.995 324.083 488.25 324.314C488.464 324.507 488.885 326.436 489.006 326.84L488.984 365.851C463.195 369.43 441.741 379.497 421.588 395.83L306.848 283.951C310.124 277.752 310.616 268.25 310.826 261.355C310.917 258.357 311.116 254.84 310.21 251.962C309.912 251.015 309.882 250.207 309.841 249.221L309.824 248.72L310.545 242.841Z"
     id="path63" />
  <path
     fill="#FEFEFE"
     d="M528.542 324.549C532.23 322.353 538.983 321.62 543.237 320.329C557.363 316.045 574.31 305.296 582.631 292.879C589.076 283.26 593.718 273.199 594.855 261.53C595.448 255.444 595.116 249.006 595.112 242.881C596.292 242.176 613.542 242.973 616.036 242.979L706.927 243.112L707.746 249.612C704.493 255.147 706.716 272.568 708.255 278.652C708.77 280.689 709.468 282.191 710.615 283.938L630.805 362.072L606.911 385.654C603.86 388.656 599.467 394.111 595.675 395.955C589.653 391.16 583.603 386.418 576.994 382.446C562.089 373.486 545.954 368.382 528.825 365.896L528.542 324.549Z"
     id="path64" />
  <path
     fill="#FE8F29"
     d="M505.869 403.955C529.439 401.868 555.247 412.571 573.096 427.43C588.122 439.94 600.987 459.144 605.265 478.411C604.647 478.729 604.985 478.617 604.075 478.696L603.336 478.75L602.773 479.956C600.859 483.546 600.556 487.845 599.6 491.785C594.734 511.823 582.463 530.39 567.473 544.305C563.04 548.419 558.849 552.207 553.656 555.354C534.029 567.248 509.31 571.367 486.935 565.782C478.331 563.634 469.366 560.288 461.829 555.56C442.202 543.25 426.256 520.843 418.25 499.328C416.789 495.402 415.822 491.232 415.085 487.116C414.452 483.578 414.358 479.885 412.448 476.76L412.206 476.374C416.57 462.623 422.226 451.017 431.673 439.959L436.25 434.853C439.994 430.982 443.912 426.978 448.192 423.703C464.462 411.253 485.481 404.348 505.869 403.955Z"
     id="path65"
     style="fill:#dc8add" />
  <path
     fill="#FEFEFE"
     d="M431.673 439.959L436.25 434.853C439.994 430.982 443.912 426.978 448.192 423.703C464.462 411.253 485.481 404.348 505.869 403.955L506.009 404.56C507.299 409.83 514.967 412.512 511.018 418.587C509.921 420.275 507.947 421.464 506 421.867C502.32 422.628 498.365 422.477 494.623 423.087C487.392 424.265 475.92 427.897 471.421 434.187C470.746 435.13 469.245 437.736 469.111 438.899C468.884 440.878 469.597 443.969 469.959 445.957C471.093 452.168 470.213 457.069 465.654 461.774C463.218 464.288 459.479 466.393 456 466.977C450.548 467.891 444.249 466.52 439.903 463.025C436.066 459.939 432.544 454.652 432.118 449.648L431.673 439.959Z"
     id="path66" />
</svg>
