<svg width="222" height="222" viewBox="0 0 222 222" fill="none" xmlns="http://www.w3.org/2000/svg">
<g clip-path="url(#clip0_2995_4349)">
<path d="M64.4718 148.915L73.0173 140.37C67.7368 133.645 64.3898 125.608 63.3364 117.123H51.2651C52.4603 129.135 57.241 140.071 64.4718 148.915ZM81.4433 73.4397C88.1958 68.1683 96.2492 64.823 104.749 63.7588V51.6875C92.7377 52.8827 81.8019 57.6634 72.9576 64.8942L81.4433 73.4397ZM51.2651 105.172H63.3364C64.4121 96.4468 67.8781 88.4989 73.0173 81.8657L64.4718 73.3799C57.0307 82.4429 52.4358 93.5039 51.2651 105.172ZM117 51.6875V63.7588C140.425 66.8662 158.532 86.9452 158.532 111.147C158.532 135.35 140.425 155.429 117 158.536V170.607C147.058 167.44 170.484 141.983 170.484 111.147C170.484 80.312 147.058 54.8547 117 51.6875ZM134.629 111.147L117 97.9408L98.7734 84.256V138.039L117 124.354L134.629 111.147ZM72.9576 157.401C82.0264 164.832 93.0843 169.426 104.749 170.607V158.536C96.2492 157.472 88.1958 154.127 81.4433 148.855L72.9576 157.401Z" fill="black"/>
</g>
<defs>
<clipPath id="clip0_2995_4349">
<rect x="0.171875" y="0.59375" width="221.406" height="221.406" rx="110.703" fill="white"/>
</clipPath>
</defs>
</svg>
