{
	"asset":{
		"generator":"Khronos glTF Blender I/O v3.5.30",
		"version":"2.0"
	},
	"extensionsUsed":[
		"KHR_materials_specular",
		"KHR_materials_ior"
	],
	"scene":0,
	"scenes":[
		{
			"name":"Scene",
			"nodes":[
				0,
				1,
				2,
				3,
				4,
				5
			]
		}
	],
	"nodes":[
		{
			"mesh":0,
			"name":"Preview_Mesh"
		},
		{
			"mesh":1,
			"name":"Calibration_Mesh"
		},
		{
			"mesh":2,
			"name":"Preview_Mesh.001",
			"translation":[
				-2.4332892894744873,
				0,
				0
			]
		},
		{
			"mesh":3,
			"name":"Calibration_Mesh.001",
			"translation":[
				-2.4332892894744873,
				0,
				0
			]
		},
		{
			"mesh":4,
			"name":"Preview_Mesh.002",
			"translation":[
				-5.058225631713867,
				0,
				0
			]
		},
		{
			"mesh":5,
			"name":"Calibration_Mesh.002",
			"translation":[
				-5.058225631713867,
				0,
				0
			]
		}
	],
	"materials":[
		{
			"doubleSided":true,
			"name":"SliverMaterial",
			"pbrMetallicRoughness":{
				"baseColorFactor":[
					0.800000011920929,
					0.800000011920929,
					0.800000011920929,
					1
				],
				"metallicFactor":0.7749999761581421,
				"roughnessFactor":0
			}
		},
		{
			"extensions":{
				"KHR_materials_specular":{
					"specularColorFactor":[
						1.1409090757369993,
						1.1409090757369993,
						1.1409090757369993
					]
				}
			},
			"name":"DefaultMaterial",
			"pbrMetallicRoughness":{
				"baseColorFactor":[
					0.6000000238418579,
					0.6000000238418579,
					0.6000000238418579,
					1
				],
				"metallicFactor":0.10454545170068741,
				"roughnessFactor":0.20000001788139343
			}
		},
		{
			"doubleSided":true,
			"extensions":{
				"KHR_materials_specular":{
					"specularColorFactor":[
						0.14551512891061175,
						0.14551512891061175,
						0.14551512891061175
					]
				},
				"KHR_materials_ior":{
					"ior":1.4500000476837158
				}
			},
			"name":"BlueMaterial",
			"pbrMetallicRoughness":{
				"baseColorFactor":[
					0.22539150714874268,
					0.2584215998649597,
					1,
					1
				],
				"metallicFactor":0.07499998807907104,
				"roughnessFactor":0.14318183064460754
			}
		},
		{
			"doubleSided":true,
			"extensions":{
				"KHR_materials_specular":{
					"specularColorTexture":{
						"index":0
					},
					"specularColorFactor":[
						1.794792409385157,
						1.794792409385157,
						1.794792409385157
					]
				},
				"KHR_materials_ior":{
					"ior":1.4500000476837158
				}
			},
			"name":"TexturedMaterial",
			"normalTexture":{
				"index":1
			},
			"pbrMetallicRoughness":{
				"baseColorTexture":{
					"index":2
				},
				"metallicRoughnessTexture":{
					"index":3
				}
			}
		}
	],
	"meshes":[
		{
			"name":"Preview_Mesh",
			"primitives":[
				{
					"attributes":{
						"POSITION":0,
						"TEXCOORD_0":1,
						"NORMAL":2
					},
					"indices":3,
					"material":0
				}
			]
		},
		{
			"name":"Calibration_Mesh",
			"primitives":[
				{
					"attributes":{
						"POSITION":4,
						"TEXCOORD_0":5,
						"NORMAL":6
					},
					"indices":7,
					"material":1
				}
			]
		},
		{
			"name":"Preview_Mesh.001",
			"primitives":[
				{
					"attributes":{
						"POSITION":8,
						"TEXCOORD_0":9,
						"NORMAL":10
					},
					"indices":3,
					"material":2
				}
			]
		},
		{
			"name":"Calibration_Mesh.001",
			"primitives":[
				{
					"attributes":{
						"POSITION":11,
						"TEXCOORD_0":12,
						"NORMAL":13
					},
					"indices":7,
					"material":1
				}
			]
		},
		{
			"name":"Preview_Mesh.002",
			"primitives":[
				{
					"attributes":{
						"POSITION":14,
						"TEXCOORD_0":15,
						"NORMAL":16
					},
					"indices":3,
					"material":3
				}
			]
		},
		{
			"name":"Calibration_Mesh.002",
			"primitives":[
				{
					"attributes":{
						"POSITION":17,
						"TEXCOORD_0":18,
						"NORMAL":19
					},
					"indices":7,
					"material":1
				}
			]
		}
	],
	"textures":[
		{
			"sampler":0,
			"source":0
		},
		{
			"sampler":0,
			"source":1
		},
		{
			"sampler":1,
			"source":2
		},
		{
			"sampler":0,
			"source":3
		}
	],
	"images":[
		{
			"mimeType":"image/png",
			"name":"Image",
			"uri":"Image.png"
		},
		{
			"mimeType":"image/png",
			"name":"cloth_fig_Normal",
			"uri":"cloth_fig_Normal.png"
		},
		{
			"mimeType":"image/png",
			"name":"cloth_fig_Diffuse",
			"uri":"cloth_fig_Diffuse.png"
		},
		{
			"mimeType":"image/png",
			"name":"cloth_fig_Metallic-cloth_fig_Roughness",
			"uri":"cloth_fig_Metallic-cloth_fig_Roughness.png"
		}
	],
	"accessors":[
		{
			"bufferView":0,
			"componentType":5126,
			"count":36228,
			"max":[
				1.0168780088424683,
				2.091491937637329,
				0.9763060212135315
			],
			"min":[
				-1.1265790462493896,
				0.07684300094842911,
				-1.1052850484848022
			],
			"type":"VEC3"
		},
		{
			"bufferView":1,
			"componentType":5126,
			"count":36228,
			"type":"VEC2"
		},
		{
			"bufferView":2,
			"componentType":5126,
			"count":36228,
			"type":"VEC3"
		},
		{
			"bufferView":3,
			"componentType":5123,
			"count":212424,
			"type":"SCALAR"
		},
		{
			"bufferView":4,
			"componentType":5126,
			"count":9140,
			"max":[
				0.6733869910240173,
				1.8961529731750488,
				0.7821810245513916
			],
			"min":[
				-0.7826089859008789,
				0.004230000078678131,
				-0.763903021812439
			],
			"type":"VEC3"
		},
		{
			"bufferView":5,
			"componentType":5126,
			"count":9140,
			"type":"VEC2"
		},
		{
			"bufferView":6,
			"componentType":5126,
			"count":9140,
			"type":"VEC3"
		},
		{
			"bufferView":7,
			"componentType":5123,
			"count":52368,
			"type":"SCALAR"
		},
		{
			"bufferView":8,
			"componentType":5126,
			"count":36228,
			"max":[
				1.0168780088424683,
				2.091491937637329,
				0.9763060212135315
			],
			"min":[
				-1.1265790462493896,
				0.07684300094842911,
				-1.1052850484848022
			],
			"type":"VEC3"
		},
		{
			"bufferView":9,
			"componentType":5126,
			"count":36228,
			"type":"VEC2"
		},
		{
			"bufferView":10,
			"componentType":5126,
			"count":36228,
			"type":"VEC3"
		},
		{
			"bufferView":11,
			"componentType":5126,
			"count":9140,
			"max":[
				0.6733869910240173,
				1.8961529731750488,
				0.7821810245513916
			],
			"min":[
				-0.7826089859008789,
				0.004230000078678131,
				-0.763903021812439
			],
			"type":"VEC3"
		},
		{
			"bufferView":12,
			"componentType":5126,
			"count":9140,
			"type":"VEC2"
		},
		{
			"bufferView":13,
			"componentType":5126,
			"count":9140,
			"type":"VEC3"
		},
		{
			"bufferView":14,
			"componentType":5126,
			"count":36228,
			"max":[
				1.0168780088424683,
				2.091491937637329,
				0.9763060212135315
			],
			"min":[
				-1.1265790462493896,
				0.07684300094842911,
				-1.1052850484848022
			],
			"type":"VEC3"
		},
		{
			"bufferView":15,
			"componentType":5126,
			"count":36228,
			"type":"VEC2"
		},
		{
			"bufferView":16,
			"componentType":5126,
			"count":36228,
			"type":"VEC3"
		},
		{
			"bufferView":17,
			"componentType":5126,
			"count":9140,
			"max":[
				0.6733869910240173,
				1.8961529731750488,
				0.7821810245513916
			],
			"min":[
				-0.7826089859008789,
				0.004230000078678131,
				-0.763903021812439
			],
			"type":"VEC3"
		},
		{
			"bufferView":18,
			"componentType":5126,
			"count":9140,
			"type":"VEC2"
		},
		{
			"bufferView":19,
			"componentType":5126,
			"count":9140,
			"type":"VEC3"
		}
	],
	"bufferViews":[
		{
			"buffer":0,
			"byteLength":434736,
			"byteOffset":0,
			"target":34962
		},
		{
			"buffer":0,
			"byteLength":289824,
			"byteOffset":434736,
			"target":34962
		},
		{
			"buffer":0,
			"byteLength":434736,
			"byteOffset":724560,
			"target":34962
		},
		{
			"buffer":0,
			"byteLength":424848,
			"byteOffset":1159296,
			"target":34963
		},
		{
			"buffer":0,
			"byteLength":109680,
			"byteOffset":1584144,
			"target":34962
		},
		{
			"buffer":0,
			"byteLength":73120,
			"byteOffset":1693824,
			"target":34962
		},
		{
			"buffer":0,
			"byteLength":109680,
			"byteOffset":1766944,
			"target":34962
		},
		{
			"buffer":0,
			"byteLength":104736,
			"byteOffset":1876624,
			"target":34963
		},
		{
			"buffer":0,
			"byteLength":434736,
			"byteOffset":1981360,
			"target":34962
		},
		{
			"buffer":0,
			"byteLength":289824,
			"byteOffset":2416096,
			"target":34962
		},
		{
			"buffer":0,
			"byteLength":434736,
			"byteOffset":2705920,
			"target":34962
		},
		{
			"buffer":0,
			"byteLength":109680,
			"byteOffset":3140656,
			"target":34962
		},
		{
			"buffer":0,
			"byteLength":73120,
			"byteOffset":3250336,
			"target":34962
		},
		{
			"buffer":0,
			"byteLength":109680,
			"byteOffset":3323456,
			"target":34962
		},
		{
			"buffer":0,
			"byteLength":434736,
			"byteOffset":3433136,
			"target":34962
		},
		{
			"buffer":0,
			"byteLength":289824,
			"byteOffset":3867872,
			"target":34962
		},
		{
			"buffer":0,
			"byteLength":434736,
			"byteOffset":4157696,
			"target":34962
		},
		{
			"buffer":0,
			"byteLength":109680,
			"byteOffset":4592432,
			"target":34962
		},
		{
			"buffer":0,
			"byteLength":73120,
			"byteOffset":4702112,
			"target":34962
		},
		{
			"buffer":0,
			"byteLength":109680,
			"byteOffset":4775232,
			"target":34962
		}
	],
	"samplers":[
		{
			"magFilter":9729,
			"minFilter":9987
		},
		{
			"magFilter":9729,
			"minFilter":9987,
			"wrapS":33071,
			"wrapT":33071
		}
	],
	"buffers":[
		{
			"byteLength":4884912,
			"uri":"test.bin"
		}
	]
}
