<svg width="140" height="140" viewBox="0 0 140 140" fill="none" xmlns="http://www.w3.org/2000/svg">
<path d="M90.4167 81.6667H85.8083L84.175 80.0917C90.0893 73.2318 93.3398 64.4741 93.3334 55.4167C93.3334 47.9175 91.1096 40.5867 86.9432 34.3513C82.7769 28.1159 76.8551 23.2561 69.9268 20.3863C62.9984 17.5164 55.3746 16.7656 48.0195 18.2286C40.6644 19.6916 33.9083 23.3028 28.6056 28.6056C23.3028 33.9083 19.6916 40.6644 18.2286 48.0195C16.7656 55.3746 17.5164 62.9984 20.3863 69.9268C23.2561 76.8551 28.1159 82.7769 34.3513 86.9432C40.5867 91.1096 47.9175 93.3334 55.4167 93.3334C64.8083 93.3334 73.4417 89.8917 80.0917 84.175L81.6667 85.8083V90.4167L110.833 119.525L119.525 110.833L90.4167 81.6667ZM55.4167 81.6667C40.8917 81.6667 29.1667 69.9417 29.1667 55.4167C29.1667 40.8917 40.8917 29.1667 55.4167 29.1667C69.9417 29.1667 81.6667 40.8917 81.6667 55.4167C81.6667 69.9417 69.9417 81.6667 55.4167 81.6667Z" fill="black"/>
<path d="M70.0002 58.333H58.3335V69.9997H52.5002V58.333H40.8335V52.4997H52.5002V40.833H58.3335V52.4997H70.0002V58.333Z" fill="black"/>
</svg>
